<?xml version="1.0" encoding="UTF-8"?>
<svg version="1.1" xmlns="http://www.w3.org/2000/svg" width="790" height="527">
<path d="M0 0 C2.17701779 -0.00107606 4.35403529 -0.00301952 6.53105164 -0.00575256 C12.37488556 -0.01054721 18.21864163 -0.00301718 24.06246614 0.00720048 C30.19670285 0.01605344 36.33093765 0.01422226 42.46517944 0.01383972 C52.74161059 0.01477203 63.01801195 0.02340386 73.29443359 0.03710938 C85.18270187 0.0529057 97.07093775 0.05810466 108.95921576 0.05737382 C121.63636456 0.05669974 134.31350085 0.06362435 146.99064589 0.07282043 C150.64232016 0.07495359 154.29399243 0.0756618 157.94566727 0.07605934 C163.6634751 0.07706038 169.38125554 0.08313722 175.09905434 0.09322548 C177.20100423 0.09615575 179.30295728 0.09737479 181.40490913 0.09679794 C184.26269559 0.09631023 187.12040427 0.101933 189.97817993 0.10920715 C190.81861143 0.10765855 191.65904292 0.10610995 192.52494204 0.10451442 C198.24575917 0.12873896 198.24575917 0.12873896 200.47412109 1.24291992 C200.04120135 6.30327071 197.31823173 9.51590659 194.28662109 13.36791992 C193.18539812 14.80077441 192.08517843 16.2344004 190.98583984 17.66870117 C190.40882324 18.41716309 189.83180664 19.165625 189.23730469 19.93676758 C186.30567124 23.7711915 183.45456137 27.6641197 180.59912109 31.55541992 C180.01710938 32.34529297 179.43509766 33.13516602 178.83544922 33.94897461 C175.83019711 38.02800231 172.83744901 42.1155968 169.86083984 46.21557617 C147.25429352 77.2884294 147.25429352 77.2884294 133.47412109 81.24291992 C130.11211586 81.48901558 130.11211586 81.48901558 126.37466431 81.48342896 C125.33791929 81.48599223 125.33791929 81.48599223 124.28022993 81.48860729 C121.97707719 81.49188703 119.6742194 81.48092378 117.37109375 81.4699707 C115.71505744 81.46940626 114.05902064 81.4697238 112.40298462 81.47085571 C107.91583571 81.47142894 103.42879397 81.45967951 98.94166994 81.4457078 C94.24915391 81.43319541 89.55663536 81.43202954 84.86410522 81.42965698 C75.98195678 81.42344372 67.09985763 81.40703495 58.21773088 81.386958 C46.21261277 81.36041163 34.20748115 81.34962512 22.20234108 81.33795357 C3.2928975 81.31915427 -15.61644205 81.27930755 -34.52587891 81.24291992 C-34.52587891 108.30291992 -34.52587891 135.36291992 -34.52587891 163.24291992 C52.59412109 163.73791992 52.59412109 163.73791992 141.47412109 164.24291992 C140.4330185 168.40733032 139.32075091 170.04158027 136.72412109 173.36791992 C135.89956306 174.43957568 135.07675371 175.5125784 134.25537109 176.58666992 C133.80806641 177.17061523 133.36076172 177.75456055 132.89990234 178.35620117 C130.28370777 181.81817919 127.75784225 185.34538324 125.22412109 188.86791992 C124.67409424 189.63104492 124.12406738 190.39416992 123.55737305 191.18041992 C121.30783428 194.30252086 119.06077964 197.42639899 116.81542969 200.55151367 C114.108228 204.31889515 111.39480876 208.0813396 108.66552734 211.83276367 C106.5355827 214.76103256 104.44503284 217.7124419 102.37646484 220.68432617 C95.23423829 230.79198504 87.61083666 239.02481605 74.9649353 241.79197693 C70.31558153 242.39257993 65.74549009 242.37380972 61.0625 242.35644531 C60.02774536 242.35659134 58.99299072 242.35673737 57.92687988 242.35688782 C54.51812621 242.35619302 51.10942768 242.34842089 47.70068359 242.34057617 C45.33271311 242.33871045 42.96474225 242.33728728 40.59677124 242.33628845 C34.37269012 242.33247539 28.14863243 242.32265543 21.92456055 242.31158447 C15.5699902 242.30134432 9.21541606 242.29678525 2.86083984 242.29174805 C-9.60141002 242.28103208 -22.06364251 242.26397019 -34.52587891 242.24291992 C-34.5242424 243.35724899 -34.5226059 244.47157806 -34.5209198 245.61967468 C-34.51519896 249.81368428 -34.51165254 254.00769354 -34.50871277 258.20170593 C-34.50715582 260.00572264 -34.50503451 261.80973896 -34.50230408 263.61375427 C-34.44053075 305.52295822 -38.08884829 348.84527139 -66.52587891 382.24291992 C-67.33669922 383.24709961 -68.14751953 384.2512793 -68.98291016 385.28588867 C-93.52812754 415.45409462 -129.45658179 435.0020614 -168.12768555 439.54882812 C-211.02905783 443.83243429 -255.38377274 434.30835044 -289.78759766 407.49291992 C-294.17640436 403.8867107 -298.39860779 400.14506716 -302.52587891 396.24291992 C-303.27482422 395.54682617 -304.02376953 394.85073242 -304.79541016 394.13354492 C-332.68934677 367.36318194 -347.66142387 327.90305807 -348.61514473 289.66382599 C-348.6481678 285.62893421 -348.6499099 281.59525753 -348.6394043 277.56030273 C-348.63912157 276.02160646 -348.63928183 274.48291006 -348.6398468 272.94421387 C-348.64013143 268.80454856 -348.63428913 264.66491276 -348.62727284 260.52525425 C-348.62098328 256.18511165 -348.6204311 251.84496823 -348.61924744 247.50482178 C-348.61615054 239.30287693 -348.60795946 231.10094555 -348.59789795 222.89900661 C-348.5866856 213.55428887 -348.5812135 204.20957046 -348.57620251 194.86484766 C-348.56577533 175.65752925 -348.54745046 156.45022928 -348.52587891 137.24291992 C-333.34587891 137.24291992 -318.16587891 137.24291992 -302.52587891 137.24291992 C-302.85587891 136.58291992 -303.18587891 135.92291992 -303.52587891 135.24291992 C-303.61565619 133.731276 -303.64345323 132.21571814 -303.6394043 130.70141602 C-303.63932877 129.76059174 -303.63925323 128.81976746 -303.63917542 127.85043335 C-303.63401413 126.83268829 -303.62885284 125.81494324 -303.62353516 124.76635742 C-303.62212021 123.72597321 -303.62070526 122.68558899 -303.61924744 121.61367798 C-303.61363757 118.28172971 -303.60108338 114.94984797 -303.58837891 111.61791992 C-303.58336518 109.36271256 -303.57880205 107.10750414 -303.57470703 104.85229492 C-303.56366493 99.31581378 -303.54691717 93.77937161 -303.52587891 88.24291992 C-304.08742172 88.23261246 -304.64896454 88.22230499 -305.2275238 88.21168518 C-311.05081356 88.10384307 -316.87394155 87.98922785 -322.69702148 87.87060547 C-324.87276844 87.82718485 -327.04855105 87.78551521 -329.22436523 87.74560547 C-332.34451059 87.6880749 -335.46447523 87.6243317 -338.58447266 87.55932617 C-339.56363144 87.54261368 -340.54279022 87.52590118 -341.55162048 87.50868225 C-342.45247879 87.48873703 -343.3533371 87.46879181 -344.28149414 87.44824219 C-345.0786937 87.43269791 -345.87589325 87.41715363 -346.69725037 87.40113831 C-348.52587891 87.24291992 -348.52587891 87.24291992 -349.52587891 86.24291992 C-349.62427105 84.71357362 -349.65386429 83.17972427 -349.65527344 81.6472168 C-349.6584256 80.66950317 -349.66157776 79.69178955 -349.66482544 78.68444824 C-349.66280121 77.6209314 -349.66077698 76.55741455 -349.65869141 75.46166992 C-349.65964813 74.37785034 -349.66060486 73.29403076 -349.66159058 72.17736816 C-349.66227256 69.88069603 -349.66041702 67.58402197 -349.65625 65.28735352 C-349.65090202 61.75817565 -349.65619441 58.22912505 -349.66259766 54.69995117 C-349.66193688 52.47469047 -349.66065572 50.24942985 -349.65869141 48.02416992 C-349.66071564 46.96065308 -349.66273987 45.89713623 -349.66482544 44.8013916 C-349.66167328 43.82367798 -349.65852112 42.84596436 -349.65527344 41.83862305 C-349.65447784 40.97338013 -349.65368225 40.10813721 -349.65286255 39.2166748 C-349.52587891 37.24291992 -349.52587891 37.24291992 -348.52587891 36.24291992 C-346.99104921 36.14972543 -345.45195808 36.12546192 -343.91430664 36.12939453 C-342.42223694 36.12957581 -342.42223694 36.12957581 -340.90002441 36.12976074 C-339.84714233 36.13487671 -338.79426025 36.13999268 -337.70947266 36.14526367 C-336.26610535 36.14677429 -336.26610535 36.14677429 -334.7935791 36.14831543 C-331.18350033 36.15356532 -327.57343847 36.16752644 -323.96337891 36.18041992 C-315.89900391 36.20104492 -307.83462891 36.22166992 -299.52587891 36.24291992 C-299.52587891 52.41291992 -299.52587891 68.58291992 -299.52587891 85.24291992 C-283.35587891 85.24291992 -267.18587891 85.24291992 -250.52587891 85.24291992 C-249.3773465 100.17384124 -249.3773465 100.17384124 -249.41908264 106.69064331 C-249.4199177 107.81848982 -249.4199177 107.81848982 -249.42076963 108.9691211 C-249.42375531 111.43656219 -249.43390424 113.90391692 -249.4440918 116.37133789 C-249.44765581 118.16170161 -249.45073961 119.95206633 -249.4533844 121.74243164 C-249.45989337 125.57329392 -249.46942504 129.40413212 -249.48127937 133.23498154 C-249.49971062 139.30582911 -249.5092077 145.37667116 -249.51719666 151.44754028 C-249.54124384 168.70243847 -249.57716245 185.95730151 -249.62182617 203.2121582 C-249.646464 212.76084865 -249.66377085 222.30952547 -249.67338556 231.85824311 C-249.67988426 237.87959234 -249.69534865 243.90082779 -249.71770298 249.92213798 C-249.72952608 253.68351291 -249.73280572 257.44486114 -249.73380089 261.20625305 C-249.73592789 262.93508314 -249.74144752 264.66391334 -249.7508316 266.39271927 C-249.87388796 289.99849148 -246.91532972 313.10942172 -229.85400391 330.96166992 C-217.47391993 343.09249046 -202.80189954 347.5335567 -185.73144531 347.55981445 C-170.2452542 347.34491271 -156.98494701 341.28923598 -145.80322266 330.63745117 C-131.64881111 315.75468226 -126.35763181 296.0600561 -126.3878479 275.97923279 C-126.38502662 275.19878996 -126.38220534 274.41834714 -126.37929857 273.61425453 C-126.37103491 271.02619185 -126.36962145 268.4381724 -126.36816406 265.85009766 C-126.36348966 263.98312766 -126.35834508 262.1161588 -126.35276794 260.24919128 C-126.341528 256.24038743 -126.33307404 252.23159083 -126.32664871 248.22277641 C-126.31591641 241.87050023 -126.29565696 235.51827632 -126.27352905 229.16603088 C-126.21178285 211.10631718 -126.15766312 193.04660696 -126.12451172 174.98681641 C-126.10610587 165.00336998 -126.07709653 155.02001173 -126.03650701 145.03663021 C-126.01553891 139.76344145 -125.99999427 134.49036329 -125.99769974 129.21713066 C-125.99553584 124.25034672 -125.97949093 119.28379312 -125.95331001 114.31707954 C-125.94618174 112.50645345 -125.94398412 110.69579924 -125.94741249 108.88516235 C-125.96990724 94.73199956 -124.80093116 81.02445103 -119.83837891 67.61791992 C-119.58491699 66.92045654 -119.33145508 66.22299316 -119.0703125 65.50439453 C-109.75068746 40.90829954 -90.51652821 20.82436666 -66.71337891 9.99291992 C-45.16918935 0.63611233 -23.18334702 -0.06760938 0 0 Z " fill="#0463F3" transform="translate(535.52587890625,63.757080078125)"/>
<path d="M0 0 C2.17701779 -0.00107606 4.35403529 -0.00301952 6.53105164 -0.00575256 C12.37488556 -0.01054721 18.21864163 -0.00301718 24.06246614 0.00720048 C30.19670285 0.01605344 36.33093765 0.01422226 42.46517944 0.01383972 C52.74161059 0.01477203 63.01801195 0.02340386 73.29443359 0.03710938 C85.18270187 0.0529057 97.07093775 0.05810466 108.95921576 0.05737382 C121.63636456 0.05669974 134.31350085 0.06362435 146.99064589 0.07282043 C150.64232016 0.07495359 154.29399243 0.0756618 157.94566727 0.07605934 C163.6634751 0.07706038 169.38125554 0.08313722 175.09905434 0.09322548 C177.20100423 0.09615575 179.30295728 0.09737479 181.40490913 0.09679794 C184.26269559 0.09631023 187.12040427 0.101933 189.97817993 0.10920715 C190.81861143 0.10765855 191.65904292 0.10610995 192.52494204 0.10451442 C198.24575917 0.12873896 198.24575917 0.12873896 200.47412109 1.24291992 C200.04120135 6.30327071 197.31823173 9.51590659 194.28662109 13.36791992 C193.18539812 14.80077441 192.08517843 16.2344004 190.98583984 17.66870117 C190.40882324 18.41716309 189.83180664 19.165625 189.23730469 19.93676758 C186.30567124 23.7711915 183.45456137 27.6641197 180.59912109 31.55541992 C180.01710938 32.34529297 179.43509766 33.13516602 178.83544922 33.94897461 C175.83019711 38.02800231 172.83744901 42.1155968 169.86083984 46.21557617 C147.11714462 77.4769415 147.11714462 77.4769415 133.47412109 81.24291992 C130.42273735 81.51703401 127.38891709 81.49598944 124.32702637 81.4699707 C122.95973837 81.47041728 122.95973837 81.47041728 121.5648284 81.47087288 C118.51561774 81.46948579 115.46664916 81.45381014 112.41748047 81.43823242 C110.22931555 81.43439347 108.04114886 81.43146615 105.85298157 81.42938232 C101.1434351 81.42306219 96.43396041 81.41052784 91.72444153 81.39324951 C84.27882422 81.36621084 76.83323079 81.35441779 69.38757324 81.3449707 C58.95009752 81.33030746 48.51264856 81.31008325 38.07519531 81.28393555 C37.41325509 81.28227992 36.75131487 81.2806243 36.06931585 81.2789185 C30.69863029 81.26542954 25.32794568 81.25157871 19.95726109 81.23771286 C15.26252344 81.22560749 10.56778545 81.21364663 5.87304688 81.2019043 C4.88134999 81.19941992 4.88134999 81.19941992 3.86961883 81.19688535 C-7.15725272 81.16950548 -18.18412454 81.15007458 -29.21102095 81.1360836 C-36.61390928 81.12611233 -44.01668842 81.10638326 -51.41953278 81.07922363 C-56.02284364 81.0643146 -60.62613944 81.05767515 -65.22947121 81.05329132 C-67.36521619 81.04954434 -69.5009583 81.04233653 -71.6366787 81.03142548 C-74.5507841 81.01700574 -77.46464916 81.01491734 -80.37878418 81.01586914 C-81.22489588 81.00867922 -82.07100759 81.0014893 -82.94275904 80.9940815 C-87.54386117 81.01019149 -91.19611779 81.49187702 -95.52587891 83.24291992 C-96.27611328 83.52651367 -97.02634766 83.81010742 -97.79931641 84.10229492 C-107.33347894 88.14279503 -116.31780653 94.45799761 -120.40478516 104.37573242 C-121.03901485 106.45539702 -121.03901485 106.45539702 -121.52587891 109.24291992 C-122.18587891 109.24291992 -122.84587891 109.24291992 -123.52587891 109.24291992 C-124.56832849 77.60377324 -124.56832849 77.60377324 -118.52587891 64.24291992 C-118.23648437 63.58050293 -117.94708984 62.91808594 -117.64892578 62.2355957 C-106.096961 36.08425292 -86.10135298 17.60491624 -59.72167969 7.07983398 C-40.66196047 -0.18464428 -20.12239002 -0.05868274 0 0 Z " fill="#0A9CFB" transform="translate(535.52587890625,63.757080078125)"/>
<path d="M0 0 C1.54652756 -0.00472824 1.54652756 -0.00472824 3.1242981 -0.009552 C4.22651703 -0.00752777 5.32873596 -0.00550354 6.46435547 -0.00341797 C7.60436005 -0.00437469 8.74436462 -0.00533142 9.91891479 -0.00631714 C12.32452449 -0.00699671 14.73013603 -0.00515799 17.13574219 -0.00097656 C20.82474868 0.00438466 24.51363396 -0.00093421 28.20263672 -0.00732422 C30.53987657 -0.00666359 32.87711635 -0.00538275 35.21435547 -0.00341797 C36.32062286 -0.0054422 37.42689026 -0.00746643 38.56668091 -0.009552 C39.59139496 -0.00639984 40.61610901 -0.00324768 41.671875 0 C42.57390656 0.00079559 43.47593811 0.00159119 44.40530396 0.00241089 C46.70654297 0.12939453 46.70654297 0.12939453 49.70654297 1.12939453 C49.70654297 28.18939453 49.70654297 55.24939453 49.70654297 83.12939453 C55.15154297 83.62439453 55.15154297 83.62439453 60.70654297 84.12939453 C61.03654297 85.77939453 61.36654297 87.42939453 61.70654297 89.12939453 C61.07748047 89.54189453 60.44841797 89.95439453 59.80029297 90.37939453 C48.48706672 98.01241465 42.07198806 106.23290392 35.22216797 117.88720703 C29.39303681 127.78614761 29.39303681 127.78614761 26.70654297 129.12939453 C25.72229972 130.80845581 25.72229972 130.80845581 24.83154297 132.81689453 C23.076356 136.48503809 20.98182886 139.75569476 18.70654297 143.12939453 C18.37654297 144.11939453 18.04654297 145.10939453 17.70654297 146.12939453 C17.04654297 146.12939453 16.38654297 146.12939453 15.70654297 146.12939453 C15.47966797 146.66564453 15.25279297 147.20189453 15.01904297 147.75439453 C13.29189237 150.87971466 10.98926581 153.39012712 8.70654297 156.12939453 C7.4280201 158.34526801 7.4280201 158.34526801 6.70654297 160.12939453 C6.04654297 160.12939453 5.38654297 160.12939453 4.70654297 160.12939453 C3.71654297 163.09939453 3.71654297 163.09939453 2.70654297 166.12939453 C2.04654297 166.12939453 1.38654297 166.12939453 0.70654297 166.12939453 C0.62404297 166.85126953 0.54154297 167.57314453 0.45654297 168.31689453 C-0.44815479 171.70951111 -2.0417166 173.46824675 -4.29345703 176.12939453 C-5.00231597 177.44078357 -5.68802155 178.7671647 -6.29345703 180.12939453 C-6.95345703 180.12939453 -7.61345703 180.12939453 -8.29345703 180.12939453 C-8.95345703 182.10939453 -9.61345703 184.08939453 -10.29345703 186.12939453 C-10.95345703 186.12939453 -11.61345703 186.12939453 -12.29345703 186.12939453 C-12.54095703 187.01626953 -12.78845703 187.90314453 -13.04345703 188.81689453 C-14.37140215 192.3359491 -15.95228484 194.2029293 -18.29345703 197.12939453 C-19.84169024 199.83347126 -21.30358865 202.57759613 -22.77392578 205.32470703 C-24.14635343 207.85787684 -25.55547821 210.35009779 -27.04345703 212.81689453 C-27.62353516 213.78175781 -27.62353516 213.78175781 -28.21533203 214.76611328 C-28.74900391 215.4409375 -28.74900391 215.4409375 -29.29345703 216.12939453 C-29.95345703 216.12939453 -30.61345703 216.12939453 -31.29345703 216.12939453 C-32.28345703 219.42939453 -33.27345703 222.72939453 -34.29345703 226.12939453 C-34.95345703 226.12939453 -35.61345703 226.12939453 -36.29345703 226.12939453 C-36.29345703 226.78939453 -36.29345703 227.44939453 -36.29345703 228.12939453 C-36.95345703 228.45939453 -37.61345703 228.78939453 -38.29345703 229.12939453 C-39.17973508 230.97012587 -40.0656447 232.8110355 -40.94970703 234.65283203 C-43.55269119 239.45019238 -46.76156795 243.97063336 -50.29345703 248.12939453 C-50.95345703 248.12939453 -51.61345703 248.12939453 -52.29345703 248.12939453 C-52.54095703 248.70689453 -52.78845703 249.28439453 -53.04345703 249.87939453 C-54.50847981 252.51643554 -55.9684778 254.20298317 -58.29345703 256.12939453 C-61.04345703 256.87939453 -61.04345703 256.87939453 -63.29345703 257.12939453 C-63.29345703 256.46939453 -63.29345703 255.80939453 -63.29345703 255.12939453 C-64.61345703 255.45939453 -65.93345703 255.78939453 -67.29345703 256.12939453 C-66.63345703 255.51064453 -65.97345703 254.89189453 -65.29345703 254.25439453 C-49.24097707 237.93060504 -42.15135557 218.51671955 -42.14196777 195.80514526 C-42.13773536 195.01835235 -42.13350295 194.23155943 -42.12914228 193.42092431 C-42.11623405 190.81186407 -42.11011914 188.20283429 -42.10400391 185.59375 C-42.09605225 183.7121767 -42.08766357 181.83060521 -42.07887268 179.94903564 C-42.06087872 175.91075036 -42.045841 171.87246889 -42.03309631 167.83416367 C-42.0128021 161.44655561 -41.98516117 155.0589921 -41.9564209 148.67141724 C-41.89135389 133.96292484 -41.83581988 119.25439939 -41.78043365 104.54586792 C-41.72954724 91.05599591 -41.67664003 77.56614012 -41.61590815 64.07630837 C-41.58760652 57.72831644 -41.56399427 51.38032967 -41.54398346 45.03230643 C-41.53057582 41.08338403 -41.51316516 37.13448658 -41.49467278 33.18558502 C-41.48693245 31.35665901 -41.48085602 29.52772508 -41.47657967 27.69878769 C-41.4705073 25.19904172 -41.45844659 22.69939183 -41.44494629 20.19967651 C-41.4446503 19.47914341 -41.44435431 18.7586103 -41.44404936 18.01624286 C-41.41248114 13.61544246 -41.00254408 9.45968638 -40.29345703 5.12939453 C-39.96345703 5.12939453 -39.63345703 5.12939453 -39.29345703 5.12939453 C-39.29345703 13.04939453 -39.29345703 20.96939453 -39.29345703 29.12939453 C-38.63345703 29.12939453 -37.97345703 29.12939453 -37.29345703 29.12939453 C-37.29345703 28.18064453 -37.29345703 27.23189453 -37.29345703 26.25439453 C-36.20056164 18.75591781 -29.45283328 12.83812798 -23.85595703 8.25439453 C-16.53627306 2.89421145 -9.10205265 0.00801389 0 0 Z " fill="#022388" transform="translate(451.29345703125,143.87060546875)"/>
<path d="M0 0 C5.259375 -0.020625 10.51875 -0.04125 15.9375 -0.0625 C17.599021 -0.071604 19.26054199 -0.08070801 20.97241211 -0.09008789 C22.26928955 -0.09258545 23.56616699 -0.09508301 24.90234375 -0.09765625 C25.93107605 -0.1053302 25.93107605 -0.1053302 26.98059082 -0.11315918 C28.65415231 -0.11347054 30.3275958 -0.06222837 32 0 C33 1 33 1 33.11352539 4.05102539 C33.11327443 5.39991269 33.10771815 6.74880645 33.09765625 8.09765625 C33.09515869 9.39453369 33.09266113 10.69141113 33.09008789 12.02758789 C33.08098389 13.68910889 33.07187988 15.35062988 33.0625 17.0625 C33.041875 22.321875 33.02125 27.58125 33 33 C22.11 33 11.22 33 0 33 C0 22.11 0 11.22 0 0 Z " fill="#056FF5" transform="translate(135,65)"/>
<path d="M0 0 C0.86825912 0.00222061 1.73651825 0.00444122 2.63108826 0.00672913 C4.12315796 0.0069104 4.12315796 0.0069104 5.64537048 0.00709534 C6.69825256 0.0122113 7.75113464 0.01732727 8.83592224 0.02259827 C10.27928955 0.02410889 10.27928955 0.02410889 11.7518158 0.02565002 C15.36189457 0.03089991 18.97195642 0.04486104 22.58201599 0.05775452 C30.64639099 0.07837952 38.71076599 0.09900452 47.01951599 0.12025452 C47.01951599 16.29025452 47.01951599 32.46025452 47.01951599 49.12025452 C63.18951599 49.12025452 79.35951599 49.12025452 96.01951599 49.12025452 C97.16819102 64.05302983 97.16819102 64.05302983 97.13977051 70.97262573 C97.14062493 71.76777531 97.14147936 72.56292488 97.14235967 73.3821699 C97.14398139 75.99516585 97.13854846 78.60809476 97.13304138 81.22108459 C97.13275877 83.11460366 97.13291869 85.00812284 97.13348389 86.90164185 C97.13376896 92.00402484 97.12791935 97.10638397 97.12090993 102.20876145 C97.11462788 107.55520902 97.11406877 112.90165722 97.11288452 118.24810791 C97.10978545 128.35539727 97.10159136 138.46267572 97.09153503 148.5699603 C97.08032953 160.08394691 97.07485229 171.59793406 97.0698396 183.11192477 C97.05940747 206.78137405 97.04183577 230.45081367 97.01951599 254.12025452 C96.35951599 253.79025452 95.69951599 253.46025452 95.01951599 253.12025452 C94.10478315 247.83179928 93.87771504 242.64164553 93.9059906 237.27812195 C93.90584174 236.53105213 93.90569288 235.7839823 93.90553951 235.014274 C93.90622899 232.53345793 93.9140483 230.05271773 93.92185974 227.57191467 C93.92378072 225.78402752 93.92524367 223.99613983 93.92628479 222.20825195 C93.9294378 218.36856201 93.93569445 214.52889424 93.9443512 210.6892128 C93.95791188 204.61173419 93.96377597 198.53426287 93.9684906 192.45677185 C93.98051857 178.45692135 94.00256456 164.45708999 94.02471924 150.4572525 C94.04492235 137.62777289 94.06298778 124.79829977 94.07293415 111.96880758 C94.07790224 105.9335617 94.0877408 99.89834972 94.10136414 93.86311746 C94.10885066 90.10089508 94.11214478 86.33867728 94.11433029 82.57644844 C94.11619416 80.83907735 94.11977873 79.10170707 94.12526321 77.36434364 C94.15115971 68.89026853 94.08980186 60.54359743 93.01951599 52.12025452 C91.31795349 52.15119202 91.31795349 52.15119202 89.58201599 52.18275452 C86.53713086 52.18811523 83.60265382 51.99783424 80.58201599 51.62025452 C73.99476979 50.82797405 67.78613843 50.95313874 61.21482849 51.89759827 C56.83177776 52.34214256 52.41956485 52.19304944 48.01951599 52.12025452 C47.1175926 54.8260247 46.89110705 56.38614859 46.88670349 59.16322327 C46.8847699 59.97895813 46.8828363 60.79469299 46.88084412 61.63514709 C46.88535583 62.51710754 46.88986755 63.39906799 46.89451599 64.30775452 C46.89644958 65.21871887 46.89838318 66.12968323 46.90037537 67.06825256 C46.96749615 78.09563718 47.47887261 89.10752138 48.01951599 100.12025452 C47.35951599 100.12025452 46.69951599 100.12025452 46.01951599 100.12025452 C45.52451599 101.60525452 45.52451599 101.60525452 45.01951599 103.12025452 C43.24771872 100.06130849 42.77353616 97.87250317 42.79246521 94.35169983 C42.79261627 93.41102661 42.79276733 92.47035339 42.79292297 91.50117493 C42.80324554 90.49375244 42.81356812 89.48632996 42.82420349 88.44837952 C42.82703339 87.4108252 42.82986328 86.37327087 42.83277893 85.30427551 C42.84396734 81.99281751 42.86906972 78.68163068 42.89451599 75.37025452 C42.90454751 73.12416467 42.91367306 70.87807059 42.92185974 68.63197327 C42.94390229 63.12797461 42.97736667 57.62413394 43.01951599 52.12025452 C42.45797318 52.10994705 41.89643036 52.09963959 41.31787109 52.08901978 C35.49458133 51.98117767 29.67145335 51.86656244 23.84837341 51.74794006 C21.67262646 51.70451945 19.49684385 51.66284981 17.32102966 51.62294006 C14.20088431 51.5654095 11.08091966 51.50166629 7.96092224 51.43666077 C6.98176346 51.41994827 6.00260468 51.40323578 4.99377441 51.38601685 C4.09291611 51.36607162 3.1920578 51.3461264 2.26390076 51.32557678 C1.4667012 51.3100325 0.66950165 51.29448822 -0.15185547 51.2784729 C-1.98048401 51.12025452 -1.98048401 51.12025452 -2.98048401 50.12025452 C-3.07887615 48.59090821 -3.1084694 47.05705886 -3.10987854 45.52455139 C-3.1130307 44.54683777 -3.11618286 43.56912415 -3.11943054 42.56178284 C-3.11740631 41.49826599 -3.11538208 40.43474915 -3.11329651 39.33900452 C-3.11425323 38.25518494 -3.11520996 37.17136536 -3.11619568 36.05470276 C-3.11687766 33.75803062 -3.11502212 31.46135657 -3.1108551 29.16468811 C-3.10550713 25.63551024 -3.11079951 22.10645965 -3.11720276 18.57728577 C-3.11654198 16.35202507 -3.11526082 14.12676445 -3.11329651 11.90150452 C-3.11532074 10.83798767 -3.11734497 9.77447083 -3.11943054 8.6787262 C-3.11627838 7.70101257 -3.11312622 6.72329895 -3.10987854 5.71595764 C-3.10908295 4.85071472 -3.10828735 3.9854718 -3.10746765 3.0940094 C-2.93491336 0.41193259 -2.68319164 0.16292276 0 0 Z M1.01951599 2.12025452 C0.99424537 8.51062683 0.97668282 14.90098634 0.96458435 21.29139709 C0.95954291 23.46718324 0.95270992 25.64296598 0.94407654 27.81874084 C0.93200261 30.93878519 0.92628594 34.0587849 0.92185974 37.17884827 C0.91669846 38.15800705 0.91153717 39.13716583 0.90621948 40.14599609 C0.90614395 41.0468544 0.90606842 41.94771271 0.9059906 42.87586975 C0.90376999 43.67306931 0.90154938 44.47026886 0.89926147 45.29162598 C0.81901143 47.13947733 0.81901143 47.13947733 2.01951599 48.12025452 C10.74656422 49.48227938 19.83423179 49.33998859 28.64451599 49.49525452 C29.8071698 49.53336243 30.96982361 49.57147034 32.16770935 49.61073303 C33.26607117 49.6216095 34.36443298 49.63248596 35.49607849 49.64369202 C36.48688416 49.66351135 37.47768982 49.68333069 38.4985199 49.70375061 C41.23884726 49.35045875 41.23884726 49.35045875 42.83055115 46.76600647 C48.32400881 34.54165315 44.67196609 16.14114636 44.01951599 3.12025452 C41.31327229 2.21817328 39.78100614 1.99797852 37.00706482 2.00672913 C36.20646133 2.00680466 35.40585785 2.00688019 34.58099365 2.00695801 C33.29179268 2.01469994 33.29179268 2.01469994 31.97654724 2.02259827 C31.09295029 2.02401321 30.20935333 2.02542816 29.29898071 2.02688599 C26.47662471 2.03248383 23.65434802 2.0450359 20.83201599 2.05775452 C18.91860568 2.0627698 17.00519412 2.06733265 15.09178162 2.07142639 C10.40099585 2.08245255 5.71026937 2.09971568 1.01951599 2.12025452 Z " fill="#0C63D1" transform="translate(188.98048400878906,99.87974548339844)"/>
<path d="M0 0 C1.65 0 3.3 0 5 0 C5.33 0.99 5.66 1.98 6 3 C8.01508358 3.73323796 8.01508358 3.73323796 10 4 C10 4.99 10 5.98 10 7 C11.32 7.33 12.64 7.66 14 8 C14 9.32 14 10.64 14 12 C15.32 12.33 16.64 12.66 18 13 C18 13.66 18 14.32 18 15 C18.99 15.33 19.98 15.66 21 16 C21 17.32 21 18.64 21 20 C21.556875 20.12375 22.11375 20.2475 22.6875 20.375 C25.28183352 21.07617122 27.59077719 21.7953886 30 23 C30.68268138 24.32520503 31.3507041 25.65812182 32 27 C34.05000871 27.80528889 34.05000871 27.80528889 36 28 C36 28.66 36 29.32 36 30 C37.093125 30.268125 38.18625 30.53625 39.3125 30.8125 C42.87044379 31.95827851 43.59888723 32.48974574 46 35 C48.60611077 35.72197162 48.60611077 35.72197162 51 36 C51 36.66 51 37.32 51 38 C51.66 38 52.32 38 53 38 C55 40 55 40 56 42 C57.98075407 42.69137073 57.98075407 42.69137073 60.3125 43.125 C61.09238281 43.29257812 61.87226563 43.46015625 62.67578125 43.6328125 C65.26632555 44.10403188 65.26632555 44.10403188 69 44 C69.66 44.66 70.32 45.32 71 46 C72.32 46 73.64 46 75 46 C75.23976563 46.64582031 75.47953125 47.29164063 75.7265625 47.95703125 C76.79945168 50.18795832 76.79945168 50.18795832 79.0234375 50.57421875 C79.79945313 50.61160156 80.57546875 50.64898437 81.375 50.6875 C88.52775963 51.10613978 88.52775963 51.10613978 91.75 53.0625 C94.48071501 54.20029792 96.79544024 54.02635984 99.71484375 53.93359375 C103.11966042 54.03253714 106.30829343 54.845184 109.60546875 55.66015625 C112.31733673 56.045038 114.36082195 55.67034185 117 55 C117 55.66 117 56.32 117 57 C127.56 56.67 138.12 56.34 149 56 C149.33 55.34 149.66 54.68 150 54 C153.4655107 51.96146429 154.81286869 51.95705183 158.8125 52.875 C159.864375 53.24625 160.91625 53.6175 162 54 C162.33 53.34 162.66 52.68 163 52 C165.328125 51.69140625 165.328125 51.69140625 168.25 51.5625 C172.57690954 51.24781567 175.56325134 50.86395722 179 48 C179.33 47.34 179.66 46.68 180 46 C183.84258285 43.97197016 185.86027671 44.09128025 190 45 C193.22111592 44.61666338 193.22111592 44.61666338 196 44 C196.33 42.68 196.66 41.36 197 40 C197.99 40 198.98 40 200 40 C200 39.34 200 38.68 200 38 C203.4352048 35.70986347 204.985331 35.82157027 209 36 C209.3403125 35.0409375 209.3403125 35.0409375 209.6875 34.0625 C211 32 211 32 213.5 31.4375 C214.325 31.293125 215.15 31.14875 216 31 C216.99 29.515 216.99 29.515 218 28 C218.66 28 219.32 28 220 28 C220.66 26.68 221.32 25.36 222 24 C223.65 24 225.3 24 227 24 C227 22.68 227 21.36 227 20 C229.58224282 17.34397881 231.08140949 16.08165249 234.8125 15.75 C235.534375 15.8325 236.25625 15.915 237 16 C233.9857343 20.09026275 230.55890732 23.22286372 226.5625 26.3125 C225.63606689 27.03143433 225.63606689 27.03143433 224.69091797 27.76489258 C189.99292079 54.26870849 147.04853682 64.63875371 103.90991211 58.87255859 C65.88781609 53.11343324 27.65333003 35.74008927 3.328125 4.87890625 C2.18174085 3.2784767 1.08392674 1.6433728 0 0 Z " fill="#0B44C8" transform="translate(219,444)"/>
<path d="M0 0 C1.16781006 0.00523682 2.33562012 0.01047363 3.53881836 0.01586914 C4.67327393 0.0183667 5.80772949 0.02086426 6.9765625 0.0234375 C9.15560181 0.03709351 9.15560181 0.03709351 11.37866211 0.05102539 C15.97803711 0.07165039 20.57741211 0.09227539 25.31616211 0.11352539 C25.31616211 9.35352539 25.31616211 18.59352539 25.31616211 28.11352539 C15.74616211 28.11352539 6.17616211 28.11352539 -3.68383789 28.11352539 C-3.70446289 23.67915039 -3.72508789 19.24477539 -3.74633789 14.67602539 C-3.75544189 13.27553955 -3.7645459 11.87505371 -3.77392578 10.43212891 C-3.77642334 9.33827881 -3.7789209 8.24442871 -3.78149414 7.11743164 C-3.78673096 5.99151611 -3.79196777 4.86560059 -3.79736328 3.70556641 C-3.64207883 0.16007175 -3.55501654 0.15037594 0 0 Z " fill="#055CEF" transform="translate(144.683837890625,152.886474609375)"/>
<path d="M0 0 C9.24 0 18.48 0 28 0 C28 8.91 28 17.82 28 27 C21.14716586 27.68528341 15.12629942 28.05022915 8.375 27.5625 C5.61125 27.376875 2.8475 27.19125 0 27 C0 18.09 0 9.18 0 0 Z " fill="#0773F5" transform="translate(186,32)"/>
<path d="M0 0 C54.45 0 108.9 0 165 0 C163.9588974 4.16441039 162.84662981 5.79866035 160.25 9.125 C159.42544197 10.19665576 158.60263262 11.26965847 157.78125 12.34375 C157.33394531 12.92769531 156.88664063 13.51164063 156.42578125 14.11328125 C153.80958668 17.57525927 151.28372116 21.10246332 148.75 24.625 C148.19997314 25.388125 147.64994629 26.15125 147.08325195 26.9375 C144.83371319 30.05960094 142.58665854 33.18347907 140.34130859 36.30859375 C137.6341069 40.07597523 134.92068767 43.83841968 132.19140625 47.58984375 C130.06146161 50.51811264 127.97091175 53.46952198 125.90234375 56.44140625 C120.24809036 64.44125522 115.20521339 70.90879405 106 75 C105.34 75 104.68 75 104 75 C104.5623951 71.73810844 105.4140505 70.08865152 108 68 C108.99 67.67 109.98 67.34 111 67 C111.515625 66.484375 112.03125 65.96875 112.5625 65.4375 C113.036875 64.963125 113.51125 64.48875 114 64 C114.66 64 115.32 64 116 64 C116.268125 63.195625 116.53625 62.39125 116.8125 61.5625 C117.204375 60.716875 117.59625 59.87125 118 59 C118.99 58.67 119.98 58.34 121 58 C121.73323796 55.98491642 121.73323796 55.98491642 122 54 C122.66 54 123.32 54 124 54 C124.33 53.01 124.66 52.02 125 51 C125.99 51 126.98 51 128 51 C127.938125 50.071875 127.87625 49.14375 127.8125 48.1875 C128 45 128 45 129.4375 43.25 C129.953125 42.8375 130.46875 42.425 131 42 C131.33 41.34 131.66 40.68 132 40 C134.4375 37.375 134.4375 37.375 137 35 C137.66 35 138.32 35 139 35 C139 34.01 139 33.02 139 32 C139.66 32 140.32 32 141 32 C141 30.68 141 29.36 141 28 C142.9375 25.875 142.9375 25.875 145 24 C145.33 23.34 145.66 22.68 146 22 C146.66 22 147.32 22 148 22 C148 21.34 148 20.68 148 20 C148.99 19.505 148.99 19.505 150 19 C150.94233505 17.00967415 151.80714812 14.98212971 152.625 12.9375 C153.29402344 11.28041016 153.29402344 11.28041016 153.9765625 9.58984375 C154.31429687 8.73519531 154.65203125 7.88054687 155 7 C156.32 7 157.64 7 159 7 C159 5.68 159 4.36 159 3 C157.8334639 3.00222061 156.6669278 3.00444122 155.46504211 3.00672913 C144.4736405 3.02699739 133.48224267 3.04198994 122.49082661 3.05181217 C116.83998651 3.05703161 111.18916149 3.06411228 105.53833008 3.07543945 C100.0853835 3.08630161 94.63245142 3.09228392 89.17949486 3.09487724 C87.09868326 3.09672548 85.01787246 3.10033456 82.93706703 3.10573006 C80.02353827 3.1129846 77.11006954 3.11398907 74.1965332 3.11352539 C72.90504364 3.1189183 72.90504364 3.1189183 71.58746338 3.12442017 C67.56171794 3.11748356 63.9439277 2.87820155 60 2 C58.22261972 1.90298472 56.44232969 1.85218864 54.66235352 1.83886719 C53.62099747 1.82925964 52.57964142 1.8196521 51.50672913 1.80975342 C49.8347068 1.8033786 49.8347068 1.8033786 48.12890625 1.796875 C46.97382065 1.79117493 45.81873505 1.78547485 44.62864685 1.77960205 C42.18855705 1.77016761 39.7484546 1.76362426 37.30834961 1.75976562 C33.57968979 1.75004481 29.85157778 1.7189997 26.12304688 1.6875 C23.75000327 1.68097099 21.37695573 1.67572012 19.00390625 1.671875 C17.89124893 1.6595282 16.77859161 1.6471814 15.63221741 1.63446045 C9.9179576 1.65087876 5.83065594 1.82324742 1 5 C0.67 3.35 0.34 1.7 0 0 Z " fill="#0F92E4" transform="translate(512,228)"/>
<path d="M0 0 C1.61529534 4.0330941 0.28007614 7.50601698 -0.8125 11.5 C-3.31341393 21.23570066 -4.21413805 31.00094071 -5 41 C-4.34 40.01 -3.68 39.02 -3 38 C-2.34 38 -1.68 38 -1 38 C-0.92265625 37.41476563 -0.8453125 36.82953125 -0.765625 36.2265625 C0.25598758 33.25554632 1.75574917 32.24981768 4.25 30.375 C5.01828125 29.78460938 5.7865625 29.19421875 6.578125 28.5859375 C8.9901036 27.00648054 11.32660382 26.04962199 14 25 C14.66 24.34 15.32 23.68 16 23 C18.8203125 22.5859375 18.8203125 22.5859375 22.125 22.375 C23.22070312 22.30023438 24.31640625 22.22546875 25.4453125 22.1484375 C26.28835938 22.09945312 27.13140625 22.05046875 28 22 C28 21.34 28 20.68 28 20 C36.14684214 19.3023126 43.88303369 18.71837374 52 20 C52 19.34 52 18.68 52 18 C54.31 17.67 56.62 17.34 59 17 C59.99 18.485 59.99 18.485 61 20 C61.99 18.515 61.99 18.515 63 17 C65.13671875 16.56640625 65.13671875 16.56640625 67.6875 16.5625 C68.51636719 16.54316406 69.34523438 16.52382812 70.19921875 16.50390625 C73 17 73 17 76.0324707 18.99511719 C80.65393902 21.69537074 85.03748589 21.58502305 90.28125 21.57421875 C91.25356567 21.58838333 92.22588135 21.60254791 93.22766113 21.61714172 C96.31855431 21.65886487 99.40886565 21.67424057 102.5 21.6875 C105.59086206 21.71666817 108.68158136 21.75134176 111.77233887 21.78999329 C113.68999767 21.81226878 115.6077439 21.82821561 117.5255127 21.83683777 C122.45396116 21.87633253 127.14011965 22.16828944 132 23 C132 23.33 132 23.66 132 24 C130.6853476 23.99555878 129.37069519 23.99111755 128.01620483 23.98654175 C115.62708971 23.94599905 103.23798805 23.91601718 90.84882164 23.89637566 C84.47942719 23.88593832 78.11008629 23.87177988 71.74072266 23.84912109 C65.59399514 23.82739116 59.44731914 23.815431 53.30055618 23.81024551 C50.95541193 23.80655005 48.61027049 23.79933379 46.26514816 23.78853989 C42.98057714 23.77402318 39.69621903 23.77202216 36.41162109 23.77294922 C35.44201447 23.76575867 34.47240784 23.75856812 33.47341919 23.75115967 C28.56686982 23.76614577 24.60079218 24.08032162 20 26 C19.24976563 26.28359375 18.49953125 26.5671875 17.7265625 26.859375 C8.19239996 30.89987511 -0.79192762 37.21507769 -4.87890625 47.1328125 C-5.51313594 49.2124771 -5.51313594 49.2124771 -6 52 C-6.66 52 -7.32 52 -8 52 C-9.02939067 20.75720125 -9.02939067 20.75720125 -3 7 C-2.44325813 5.69563334 -1.88726423 4.39094717 -1.33203125 3.0859375 C-0.89246094 2.06757812 -0.45289063 1.04921875 0 0 Z " fill="#166EE6" transform="translate(420,121)"/>
<path d="M0 0 C28.78027839 -0.02333016 57.56055536 -0.04097976 86.34084129 -0.05181217 C99.7031424 -0.05697488 113.06543713 -0.0639868 126.42773438 -0.07543945 C138.07033626 -0.08538706 149.7129339 -0.09185361 161.35553992 -0.09408849 C167.52377894 -0.09539547 173.6920058 -0.0984805 179.86024094 -0.10573006 C185.65985372 -0.11249147 191.45944928 -0.11461671 197.25906563 -0.11310768 C199.39325237 -0.11338395 201.52743966 -0.11538836 203.661623 -0.11920547 C206.56426229 -0.12414459 209.46683566 -0.12299745 212.36947632 -0.12025452 C213.22355021 -0.12316736 214.0776241 -0.1260802 214.95757902 -0.12908131 C220.77175758 -0.11412121 220.77175758 -0.11412121 223 1 C222.625 3.4375 222.625 3.4375 222 6 C221.34 6.33 220.68 6.66 220 7 C220 5.68 220 4.36 220 3 C147.4 2.67 74.8 2.34 0 2 C0 1.34 0 0.68 0 0 Z " fill="#38A4D0" transform="translate(513,64)"/>
<path d="M0 0 C0.66 0 1.32 0 2 0 C2 51.81 2 103.62 2 157 C2.99 157 3.98 157 5 157 C5.33 165.25 5.66 173.5 6 182 C6.66 182 7.32 182 8 182 C8.19916016 183.48113281 8.19916016 183.48113281 8.40234375 184.9921875 C8.57894531 186.27351562 8.75554687 187.55484375 8.9375 188.875 C9.11152344 190.15117187 9.28554687 191.42734375 9.46484375 192.7421875 C9.81433227 195.87559454 9.81433227 195.87559454 11 198 C10.34 198.99 9.68 199.98 9 201 C6.13122984 193.6297022 4.30065169 186.25044367 2.8125 178.5 C2.64588867 177.64704346 2.47927734 176.79408691 2.30761719 175.9152832 C0.12178418 164.09630009 -0.14473244 152.30327959 -0.11352539 140.31738281 C-0.11324266 138.77868654 -0.11340292 137.23999014 -0.1139679 135.70129395 C-0.11425253 131.56162864 -0.10841022 127.42199283 -0.10139394 123.28233433 C-0.09510438 118.94219173 -0.0945522 114.60204831 -0.09336853 110.26190186 C-0.09027164 102.059957 -0.08208056 93.85802563 -0.07201904 85.65608668 C-0.06080669 76.31136895 -0.05533459 66.96665054 -0.05032361 57.62192774 C-0.03989643 38.41461088 -0.02232904 19.20730653 0 0 Z " fill="#06327C" transform="translate(187,201)"/>
<path d="M0 0 C0.33 0.99 0.66 1.98 1 3 C-0.04125977 4.875 -0.04125977 4.875 -1.69140625 7 C-2.29952148 7.795271 -2.90763672 8.59054199 -3.53417969 9.40991211 C-4.53819824 10.69200562 -4.53819824 10.69200562 -5.5625 12 C-6.95543706 13.81302657 -8.3473398 15.62684821 -9.73828125 17.44140625 C-10.45064941 18.3658252 -11.16301758 19.29024414 -11.89697266 20.24267578 C-14.48614546 23.63739573 -16.99981999 27.08274144 -19.50683594 30.53833008 C-40.49070176 59.4190653 -40.49070176 59.4190653 -54 63 C-57.80784383 63.28450871 -61.60455355 63.25264149 -65.42138672 63.22705078 C-66.56343063 63.22734283 -67.70547455 63.22763489 -68.88212585 63.22793579 C-72.64805765 63.22654509 -76.41379036 63.21099582 -80.1796875 63.1953125 C-82.79427991 63.19158145 -85.40887371 63.18873491 -88.02346802 63.18673706 C-94.19630546 63.18053112 -100.36907171 63.16413236 -106.54187787 63.14403808 C-113.57210295 63.12165144 -120.6023315 63.11067871 -127.63258338 63.10064721 C-142.08842557 63.0797653 -156.54421179 63.04460662 -171 63 C-171 62.67 -171 62.34 -171 62 C-156.90906346 61.8692232 -142.8181235 61.73882131 -128.72717953 61.60884857 C-122.18408489 61.54848515 -115.6409914 61.48800235 -109.09790039 61.42724609 C-102.78259599 61.36860937 -96.46728876 61.31028704 -90.15197945 61.25218201 C-87.74347391 61.22996704 -85.33496941 61.20763909 -82.92646599 61.18519592 C-79.55115905 61.15376315 -76.17584863 61.12273329 -72.80053711 61.09179688 C-71.30944176 61.07777077 -71.30944176 61.07777077 -69.78822327 61.0634613 C-64.85855547 61.01870458 -59.92987033 60.98998779 -55 61 C-55 60.34 -55 59.68 -55 59 C-54.30132813 58.89042969 -53.60265625 58.78085938 -52.8828125 58.66796875 C-51.97273437 58.50941406 -51.06265625 58.35085937 -50.125 58.1875 C-49.22007812 58.03667969 -48.31515625 57.88585937 -47.3828125 57.73046875 C-44.65587522 57.16948699 -44.65587522 57.16948699 -43 54 C-42.01 54 -41.02 54 -40 54 C-39.814375 53.13375 -39.814375 53.13375 -39.625 52.25 C-38.99351176 49.97664233 -38.11141809 48.0746471 -37 46 C-36.01 46 -35.02 46 -34 46 C-33.690625 45.05125 -33.38125 44.1025 -33.0625 43.125 C-31.4137931 38.27586207 -31.4137931 38.27586207 -28 36 C-27.67 35.34 -27.34 34.68 -27 34 C-26.34 34 -25.68 34 -25 34 C-25 32.35 -25 30.7 -25 29 C-23.02 28.34 -21.04 27.68 -19 27 C-19 24.03 -19 21.06 -19 18 C-17.68 18 -16.36 18 -15 18 C-14.896875 17.38125 -14.79375 16.7625 -14.6875 16.125 C-14 14 -14 14 -11 12 C-8.66858245 9.93759216 -8.0192827 9.05784811 -7 6 C-6.01 5.67 -5.02 5.34 -4 5 C-3.30062468 3.68352881 -2.63270867 2.34977849 -2 1 C-1.34 0.67 -0.68 0.34 0 0 Z " fill="#13B9E5" transform="translate(723,82)"/>
<path d="M0 0 C5.259375 -0.020625 10.51875 -0.04125 15.9375 -0.0625 C17.599021 -0.071604 19.26054199 -0.08070801 20.97241211 -0.09008789 C22.26928955 -0.09258545 23.56616699 -0.09508301 24.90234375 -0.09765625 C25.93107605 -0.1053302 25.93107605 -0.1053302 26.98059082 -0.11315918 C28.65415231 -0.11347054 30.3275958 -0.06222837 32 0 C33 1 33 1 33.11352539 4.05102539 C33.11327443 5.39991269 33.10771815 6.74880645 33.09765625 8.09765625 C33.09515869 9.39453369 33.09266113 10.69141113 33.09008789 12.02758789 C33.08098389 13.68910889 33.07187988 15.35062988 33.0625 17.0625 C33.041875 22.321875 33.02125 27.58125 33 33 C22.11 33 11.22 33 0 33 C0 22.11 0 11.22 0 0 Z M4 4 C2.6691089 6.66178221 2.88731007 8.68739396 2.90234375 11.6640625 C2.90484131 12.6742041 2.90733887 13.6843457 2.90991211 14.72509766 C2.91901611 16.01206543 2.92812012 17.2990332 2.9375 18.625 C2.958125 22.70875 2.97875 26.7925 3 31 C12.24 31 21.48 31 31 31 C31 22.42 31 13.84 31 5 C27.53981027 4.13495257 25.08428675 3.88286507 21.578125 3.90234375 C20.55332031 3.90556641 19.52851563 3.90878906 18.47265625 3.91210938 C16.87744141 3.92467773 16.87744141 3.92467773 15.25 3.9375 C14.17105469 3.94201172 13.09210938 3.94652344 11.98046875 3.95117188 C9.32025617 3.96294273 6.66015635 3.97938601 4 4 Z " fill="#1B6FBF" transform="translate(135,65)"/>
<path d="M0 0 C0.33 0 0.66 0 1 0 C1.84837716 7.11269916 2.14851741 14.11416139 2.14526367 21.27368164 C2.15030159 22.89278694 2.15030159 22.89278694 2.15544128 24.54460144 C2.16487611 28.08313167 2.16689028 31.62161425 2.16796875 35.16015625 C2.17118533 37.63537108 2.1745497 40.11058573 2.17805481 42.58580017 C2.18402652 47.76106202 2.18589661 52.93630722 2.18530273 58.11157227 C2.18520095 64.73108535 2.1988788 71.35049156 2.21607494 77.96997929 C2.22720856 83.07702625 2.22922156 88.18404742 2.22869301 93.29110527 C2.22987007 95.73145353 2.23427646 98.17180251 2.24202538 100.61213875 C2.25185743 104.02673931 2.24893495 107.44110834 2.24291992 110.85571289 C2.24853943 111.85492767 2.25415894 112.85414246 2.25994873 113.88363647 C2.23316682 119.88751172 1.50609105 125.18329766 0 131 C-0.33 131 -0.66 131 -1 131 C-1.02335242 117.46343352 -1.04103023 103.92687197 -1.05181217 90.39028931 C-1.05699155 84.10214518 -1.06399729 77.81401501 -1.07543945 71.52587891 C-1.08644668 65.43742743 -1.09231388 59.34898923 -1.09487724 53.26052856 C-1.09669983 50.95817862 -1.10025719 48.65582926 -1.10573006 46.35348511 C-1.14099875 30.87587285 -0.77743487 15.45868916 0 0 Z " fill="#0935A2" transform="translate(412,218)"/>
<path d="M0 0 C12.54 0 25.08 0 38 0 C34.53329287 2.31113808 33.07233476 2.27310174 28.9765625 2.34375 C27.790625 2.37339844 26.6046875 2.40304688 25.3828125 2.43359375 C24.14273438 2.45550781 22.90265625 2.47742188 21.625 2.5 C19.17951951 2.54348658 16.73416894 2.59525494 14.2890625 2.65625 C13.20318848 2.67494141 12.11731445 2.69363281 10.99853516 2.71289062 C7.7134338 3.02743868 4.41969175 3.58030825 2 6 C1.90337027 7.936283 1.87812856 9.87614262 1.87974548 11.81483459 C1.87837082 13.07833237 1.87699615 14.34183014 1.87557983 15.64361572 C1.87911945 17.05676293 1.88275426 18.4699099 1.88647461 19.88305664 C1.88675647 21.36101784 1.88659876 22.83897919 1.8860321 24.31694031 C1.8857441 28.34155828 1.8916413 32.36614672 1.89860606 36.3907578 C1.90483912 40.59216365 1.90544336 44.7935701 1.90663147 48.99497986 C1.90974493 56.95646257 1.91795851 64.91793162 1.92798096 72.8794083 C1.93914164 81.94092589 1.94465243 91.00244412 1.94967639 100.06396687 C1.96014112 118.709319 1.97774084 137.35465841 2 156 C1.34 156.33 0.68 156.66 0 157 C0 105.19 0 53.38 0 0 Z " fill="#0454E3" transform="translate(189,201)"/>
<path d="M0 0 C0.918322 0.00322913 1.836644 0.00645826 2.78279394 0.00978523 C5.83663962 0.02177635 8.89039168 0.04116597 11.94419861 0.06056213 C14.1425405 0.07071384 16.34088456 0.08040654 18.53923035 0.0896759 C24.49101679 0.11606758 30.4427526 0.14886506 36.39450002 0.1828258 C42.62047523 0.21725753 48.84647748 0.24577972 55.07247925 0.27493286 C65.51720529 0.32463421 75.96190758 0.37796556 86.40660095 0.43409729 C97.16114686 0.49188423 107.91570046 0.54746975 118.67027283 0.60011292 C119.33400833 0.60336263 119.99774383 0.60661235 120.68159253 0.60996055 C124.01160454 0.62625112 127.34161676 0.64249625 130.67162907 0.65872467 C158.26504347 0.79333035 185.85841563 0.93536152 213.45176697 1.08229065 C212.13176697 2.07229065 210.81176697 3.06229065 209.45176697 4.08229065 C208.46176697 3.58729065 208.46176697 3.58729065 207.45176697 3.08229065 C205.11762168 3.40988999 202.78424457 3.74302118 200.45176697 4.08229065 C200.12176697 3.75229065 199.79176697 3.42229065 199.45176697 3.08229065 C197.76791622 2.98294289 196.079951 2.95149015 194.39317322 2.94947815 C192.85499939 2.94754456 192.85499939 2.94754456 191.28575134 2.9455719 C190.2061615 2.94943909 189.12657166 2.95330627 188.01426697 2.95729065 C186.93854431 2.95342346 185.86282166 2.94955627 184.75450134 2.9455719 C183.72776306 2.94686096 182.70102478 2.94815002 181.64317322 2.94947815 C180.69643738 2.95060608 179.74970154 2.95173401 178.77427673 2.95289612 C176.42642224 2.92964348 176.42642224 2.92964348 174.45176697 4.08229065 C174.45176697 3.42229065 174.45176697 2.76229065 174.45176697 2.08229065 C118.02176697 2.08229065 61.59176697 2.08229065 3.45176697 2.08229065 C3.12176697 2.74229065 2.79176697 3.40229065 2.45176697 4.08229065 C2.45176697 3.42229065 2.45176697 2.76229065 2.45176697 2.08229065 C-4.7897261 1.74061009 -4.7897261 1.74061009 -11.54823303 4.08229065 C-12.20823303 4.74229065 -12.86823303 5.40229065 -13.54823303 6.08229065 C-15.67323303 5.70729065 -15.67323303 5.70729065 -17.54823303 5.08229065 C-17.54823303 4.42229065 -17.54823303 3.76229065 -17.54823303 3.08229065 C-18.20823303 3.08229065 -18.86823303 3.08229065 -19.54823303 3.08229065 C-19.54823303 3.74229065 -19.54823303 4.40229065 -19.54823303 5.08229065 C-22.51823303 5.74229065 -25.48823303 6.40229065 -28.54823303 7.08229065 C-28.54823303 6.09229065 -28.54823303 5.10229065 -28.54823303 4.08229065 C-27.07256508 3.59245515 -25.592412 3.11613145 -24.11073303 2.64479065 C-23.28702209 2.37795471 -22.46331116 2.11111877 -21.61463928 1.8361969 C-14.49711116 0.08628234 -7.29576935 -0.05899096 0 0 Z " fill="#16AAEA" transform="translate(511.54823303222656,64.91770935058594)"/>
<path d="M0 0 C55.935 0.495 55.935 0.495 113 1 C109.33500863 2.83249568 108.295942 3.24951645 104.49481201 3.24050903 C103.59741302 3.24325836 102.70001404 3.24600769 101.77542114 3.24884033 C100.79862396 3.24164978 99.82182678 3.23445923 98.81542969 3.22705078 C97.7809671 3.22734283 96.74650452 3.22763489 95.68069458 3.22793579 C92.26100277 3.22654231 88.84152876 3.21098004 85.421875 3.1953125 C83.05104695 3.19158244 80.68021735 3.18873544 78.30938721 3.18673706 C72.06880438 3.17910008 65.82831461 3.15945092 59.58776855 3.1373291 C53.21998351 3.11687214 46.85218343 3.10773566 40.484375 3.09765625 C27.98954244 3.07620518 15.49477896 3.04206836 3 3 C3.00523682 3.60996826 3.01047363 4.21993652 3.01586914 4.84838867 C3.03673335 7.62808185 3.04969013 10.40775851 3.0625 13.1875 C3.07087891 14.14720703 3.07925781 15.10691406 3.08789062 16.09570312 C3.09111328 17.02705078 3.09433594 17.95839844 3.09765625 18.91796875 C3.10289307 19.77156982 3.10812988 20.6251709 3.11352539 21.50463867 C2.99579323 24.09246747 2.57107044 26.47661953 2 29 C1.67 29 1.34 29 1 29 C0.93941406 28.154375 0.87882812 27.30875 0.81640625 26.4375 C0.63159488 15.20116228 0.63159488 15.20116228 -3 5 C-2.01 4.34 -1.02 3.68 0 3 C0 2.01 0 1.02 0 0 Z " fill="#156CC4" transform="translate(498,303)"/>
<path d="M0 0 C1.65 0 3.3 0 5 0 C5.33 0.99 5.66 1.98 6 3 C8.01508358 3.73323796 8.01508358 3.73323796 10 4 C10 4.99 10 5.98 10 7 C11.32 7.33 12.64 7.66 14 8 C14 9.32 14 10.64 14 12 C15.32 12.33 16.64 12.66 18 13 C18 13.66 18 14.32 18 15 C18.99 15.33 19.98 15.66 21 16 C21 17.32 21 18.64 21 20 C21.556875 20.12375 22.11375 20.2475 22.6875 20.375 C25.28183352 21.07617122 27.59077719 21.7953886 30 23 C30.68268138 24.32520503 31.3507041 25.65812182 32 27 C34.05000871 27.80528889 34.05000871 27.80528889 36 28 C36 28.66 36 29.32 36 30 C37.093125 30.268125 38.18625 30.53625 39.3125 30.8125 C42.87044379 31.95827851 43.59888723 32.48974574 46 35 C48.60611077 35.72197162 48.60611077 35.72197162 51 36 C51 36.66 51 37.32 51 38 C51.66 38 52.32 38 53 38 C55 40 55 40 56 42 C56.94875 42.28875 57.8975 42.5775 58.875 42.875 C62.23993178 44.08637544 63.19944009 44.99906682 65 48 C58.98860799 46.15838991 53.42018963 43.96236294 47.875 41 C47.14853271 40.61263672 46.42206543 40.22527344 45.67358398 39.82617188 C33.99564168 33.42340737 23.59028887 25.21194129 14 16 C13.19691406 15.236875 12.39382812 14.47375 11.56640625 13.6875 C7.15778235 9.40194114 3.38600642 5.13362264 0 0 Z " fill="#083EC8" transform="translate(219,444)"/>
<path d="M0 0 C0.495 0.99 0.495 0.99 1 2 C0.67 2.66 0.34 3.32 0 4 C-0.66 4 -1.32 4 -2 4 C-2 4.66 -2 5.32 -2 6 C-2.99 6.495 -2.99 6.495 -4 7 C-4.88627805 8.84073134 -5.77218767 10.68164097 -6.65625 12.5234375 C-9.25923416 17.32079785 -12.46811092 21.84123883 -16 26 C-16.66 26 -17.32 26 -18 26 C-18.2475 26.5775 -18.495 27.155 -18.75 27.75 C-20.21502278 30.38704101 -21.67502077 32.07358864 -24 34 C-26.75 34.75 -26.75 34.75 -29 35 C-29 34.34 -29 33.68 -29 33 C-30.98 33.495 -30.98 33.495 -33 34 C-32.01 33.071875 -32.01 33.071875 -31 32.125 C-22.43534151 23.41558672 -17.11429348 13.96308656 -12 3 C-11.34 3 -10.68 3 -10 3 C-9.67 2.34 -9.34 1.68 -9 1 C-8.67 2.32 -8.34 3.64 -8 5 C-4.20411134 4.45773019 -2.52788007 2.79872437 0 0 Z " fill="#033BC1" transform="translate(417,366)"/>
<path d="M0 0 C-3.0142657 4.09026275 -6.44109268 7.22286372 -10.4375 10.3125 C-11.36393311 11.03143433 -11.36393311 11.03143433 -12.30908203 11.76489258 C-28.64619301 24.24387745 -46.71471912 32.29207621 -66 39 C-66.66 37.68 -67.32 36.36 -68 35 C-66.741875 34.9175 -65.48375 34.835 -64.1875 34.75 C-60.76810567 34.3959824 -60.76810567 34.3959824 -58.3125 32.0625 C-57.6628125 31.0415625 -57.6628125 31.0415625 -57 30 C-53.17575702 27.88660256 -51.15301604 28.08836233 -47 29 C-43.77888408 28.61666338 -43.77888408 28.61666338 -41 28 C-40.67 26.68 -40.34 25.36 -40 24 C-39.01 24 -38.02 24 -37 24 C-37 23.34 -37 22.68 -37 22 C-33.5647952 19.70986347 -32.014669 19.82157027 -28 20 C-27.773125 19.360625 -27.54625 18.72125 -27.3125 18.0625 C-26 16 -26 16 -23.5 15.4375 C-22.2625 15.2209375 -22.2625 15.2209375 -21 15 C-20.34 14.01 -19.68 13.02 -19 12 C-18.34 12 -17.68 12 -17 12 C-16.34 10.68 -15.68 9.36 -15 8 C-13.35 8 -11.7 8 -10 8 C-10 6.68 -10 5.36 -10 4 C-6.76715821 0.67479131 -4.64351766 -0.53068773 0 0 Z " fill="#0B50D7" transform="translate(456,460)"/>
<path d="M0 0 C9.24 0 18.48 0 28 0 C28 8.91 28 17.82 28 27 C23.05 27.495 23.05 27.495 18 28 C18.33 27.34 18.66 26.68 19 26 C20.65 26 22.3 26 24 26 C24 25.34 24 24.68 24 24 C24.66 24 25.32 24 26 24 C25.67 17.07 25.34 10.14 25 3 C20.0809375 3.2165625 20.0809375 3.2165625 15.0625 3.4375 C13.50994507 3.50215454 13.50994507 3.50215454 11.92602539 3.56811523 C10.71160767 3.6252771 10.71160767 3.6252771 9.47265625 3.68359375 C8.22367554 3.73858032 8.22367554 3.73858032 6.94946289 3.79467773 C4.99661142 3.79367103 4.99661142 3.79367103 4 5 C3.91348389 6.41570123 3.89295096 7.835595 3.90234375 9.25390625 C3.90556641 10.10791016 3.90878906 10.96191406 3.91210938 11.84179688 C3.92048828 12.73962891 3.92886719 13.63746094 3.9375 14.5625 C3.94201172 15.46419922 3.94652344 16.36589844 3.95117188 17.29492188 C3.96299775 19.53001314 3.9794778 21.76497437 4 24 C4.66 24.33 5.32 24.66 6 25 C6 25.66 6 26.32 6 27 C4.02 27 2.04 27 0 27 C0 18.09 0 9.18 0 0 Z " fill="#196EDF" transform="translate(186,32)"/>
<path d="M0 0 C1.98 0.495 1.98 0.495 4 1 C-1.47933121 8.31182277 -7.36718181 12.12239394 -16 15 C-17.59884003 15.08957201 -19.20118981 15.12197086 -20.80253601 15.12025452 C-22.28540604 15.12231651 -22.28540604 15.12231651 -23.79823303 15.12442017 C-25.4231089 15.11902725 -25.4231089 15.11902725 -27.08081055 15.11352539 C-28.22241638 15.11367142 -29.36402222 15.11381744 -30.54022217 15.1139679 C-34.32240687 15.11326993 -38.10454263 15.10548291 -41.88671875 15.09765625 C-44.5055997 15.09579166 -47.124481 15.09436795 -49.74336243 15.09336853 C-55.93752367 15.09025953 -62.13166727 15.08205194 -68.32582074 15.07201904 C-75.37774885 15.06084454 -82.4296778 15.05534408 -89.48161256 15.05032361 C-103.98775081 15.03986898 -118.49387516 15.02227786 -133 15 C-133 14.67 -133 14.34 -133 14 C-118.90906346 13.8692232 -104.8181235 13.73882131 -90.72717953 13.60884857 C-84.18408489 13.54848515 -77.6409914 13.48800235 -71.09790039 13.42724609 C-64.78259599 13.36860937 -58.46728876 13.31028704 -52.15197945 13.25218201 C-49.74347391 13.22996704 -47.33496941 13.20763909 -44.92646599 13.18519592 C-41.55115905 13.15376315 -38.17584863 13.12273329 -34.80053711 13.09179688 C-33.30944176 13.07777077 -33.30944176 13.07777077 -31.78822327 13.0634613 C-26.85855547 13.01870458 -21.92987033 12.98998779 -17 13 C-17 12.34 -17 11.68 -17 11 C-16.30132813 10.89042969 -15.60265625 10.78085938 -14.8828125 10.66796875 C-13.97273437 10.50941406 -13.06265625 10.35085937 -12.125 10.1875 C-11.22007812 10.03667969 -10.31515625 9.88585937 -9.3828125 9.73046875 C-6.65587522 9.16948699 -6.65587522 9.16948699 -5 6 C-4.01 6 -3.02 6 -2 6 C-1.855625 5.38125 -1.71125 4.7625 -1.5625 4.125 C-1 2 -1 2 0 0 Z " fill="#0FA1E5" transform="translate(685,130)"/>
<path d="M0 0 C54.45 0 108.9 0 165 0 C164.67 1.32 164.34 2.64 164 4 C163.67 3.01 163.34 2.02 163 1 C142.76365768 1.06053159 122.52744814 1.13802946 102.29125023 1.23571491 C92.89518734 1.28067679 83.49916239 1.32009056 74.10302734 1.34643555 C65.91317049 1.36941244 57.72343365 1.40280703 49.53367198 1.44870156 C45.19741131 1.47263795 40.86126953 1.491364 36.52494431 1.49761391 C32.44224768 1.50366289 28.35985527 1.52365588 24.27727127 1.55427551 C22.78013471 1.56305874 21.2829584 1.56677772 19.78579712 1.56500816 C17.73814455 1.56335232 15.69141598 1.58007922 13.64389038 1.60127258 C12.49902349 1.60588155 11.35415661 1.61049051 10.17459679 1.61523914 C6.58225127 2.05063111 4.12449905 3.21689819 1 5 C0.67 3.35 0.34 1.7 0 0 Z " fill="#258AC7" transform="translate(512,228)"/>
<path d="M0 0 C1.5631897 0.00785522 1.5631897 0.00785522 3.15795898 0.01586914 C4.28266602 0.0190918 5.40737305 0.02231445 6.56616211 0.02563477 C7.75016602 0.03401367 8.93416992 0.04239258 10.15405273 0.05102539 C11.34192383 0.05553711 12.52979492 0.06004883 13.75366211 0.06469727 C16.69967499 0.07652864 19.64558954 0.09301252 22.59155273 0.11352539 C22.59155273 0.44352539 22.59155273 0.77352539 22.59155273 1.11352539 C14.88437473 2.17658443 7.37195408 2.18906327 -0.40844727 2.11352539 C-0.40844727 10.36352539 -0.40844727 18.61352539 -0.40844727 27.11352539 C7.84155273 27.11352539 16.09155273 27.11352539 24.59155273 27.11352539 C24.59155273 18.20352539 24.59155273 9.29352539 24.59155273 0.11352539 C24.92155273 0.11352539 25.25155273 0.11352539 25.59155273 0.11352539 C25.59155273 9.35352539 25.59155273 18.59352539 25.59155273 28.11352539 C16.02155273 28.11352539 6.45155273 28.11352539 -3.40844727 28.11352539 C-3.42907227 23.67915039 -3.44969727 19.24477539 -3.47094727 14.67602539 C-3.48005127 13.27553955 -3.48915527 11.87505371 -3.49853516 10.43212891 C-3.50103271 9.33827881 -3.50353027 8.24442871 -3.50610352 7.11743164 C-3.51134033 5.99151611 -3.51657715 4.86560059 -3.52197266 3.70556641 C-3.37415861 0.330638 -3.36011727 0.15838363 0 0 Z " fill="#1048AB" transform="translate(144.408447265625,152.886474609375)"/>
<path d="M0 0 C0.66 0 1.32 0 2 0 C2.1970602 1.56132309 2.38220155 3.12415264 2.5625 4.6875 C2.66691406 5.55761719 2.77132813 6.42773438 2.87890625 7.32421875 C3 10 3 10 2.50927734 12.31958008 C1.97146103 15.15020584 1.91807724 17.68425288 1.97265625 20.5625 C1.98490234 21.60664063 1.99714844 22.65078125 2.00976562 23.7265625 C2.04492294 25.90892057 2.08398582 28.09121922 2.12695312 30.2734375 C2.13791016 31.31757813 2.14886719 32.36171875 2.16015625 33.4375 C2.17699463 34.38496094 2.19383301 35.33242187 2.21118164 36.30859375 C1.98115993 39.24010737 1.09705387 41.28834436 0 44 C-0.36051198 46.79774989 -0.36051198 46.79774989 -0.4140625 49.73828125 C-0.45273437 50.80498047 -0.49140625 51.87167969 -0.53125 52.97070312 C-0.5621875 54.07349609 -0.593125 55.17628906 -0.625 56.3125 C-0.66367187 57.43462891 -0.70234375 58.55675781 -0.7421875 59.71289062 C-0.83622011 62.47509852 -0.92187341 65.237304 -1 68 C-1.33 68 -1.66 68 -2 68 C-2.04638784 59.87218837 -2.0819019 51.74443227 -2.10362434 43.61652088 C-2.11405124 39.8422 -2.12819037 36.06796984 -2.15087891 32.29370117 C-2.17264644 28.64974262 -2.18457686 25.00587121 -2.18975449 21.36185265 C-2.19344323 19.97321896 -2.20064646 18.58458991 -2.21146011 17.19599342 C-2.22602615 15.24765316 -2.22681736 13.29922478 -2.22705078 11.35083008 C-2.231492 10.2427449 -2.23593323 9.13465973 -2.24050903 7.99299622 C-1.99558964 4.94511559 -1.29105494 2.75426785 0 0 Z " fill="#08287C" transform="translate(413,174)"/>
<path d="M0 0 C0.83789062 -0.03738281 1.67578125 -0.07476562 2.5390625 -0.11328125 C5.375 0.3125 5.375 0.3125 8.40966797 2.30322266 C13.030185 5.00905403 17.41079761 4.89752653 22.65625 4.88671875 C23.62856567 4.90088333 24.60088135 4.91504791 25.60266113 4.92964172 C28.69355431 4.97136487 31.78386565 4.98674057 34.875 5 C37.96586206 5.02916817 41.05658136 5.06384176 44.14733887 5.10249329 C46.06499767 5.12476878 47.9827439 5.14071561 49.9005127 5.14933777 C54.82896116 5.18883253 59.51511965 5.48078944 64.375 6.3125 C64.375 6.6425 64.375 6.9725 64.375 7.3125 C56.81280999 7.38871816 49.25071949 7.44117069 41.68823242 7.47729492 C39.1169057 7.49235844 36.54560457 7.5128132 33.97436523 7.53881836 C30.27321038 7.57530761 26.572396 7.59225121 22.87109375 7.60546875 C21.72603867 7.62095261 20.58098358 7.63643646 19.40122986 7.65238953 C13.19114654 7.65369174 8.89969303 7.15098055 3.375 4.3125 C-0.48391615 4.00378671 -3.86581191 4.42798516 -7.625 5.3125 C-5.47885478 0.87713321 -5.00532697 0.14365742 0 0 Z " fill="#0B7CE3" transform="translate(487.625,137.6875)"/>
<path d="M0 0 C0.73424734 14.99739254 1.39079164 29.99701985 2 45 C1.34 45 0.68 45 0 45 C-0.33 45.99 -0.66 46.98 -1 48 C-2.67955545 45.06120691 -3.2469052 42.97388452 -3.22705078 39.59863281 C-3.22689972 38.7380426 -3.22674866 37.87745239 -3.22659302 36.99078369 C-3.21627045 36.07085632 -3.20594788 35.15092896 -3.1953125 34.203125 C-3.1924826 33.25435486 -3.18965271 32.30558472 -3.18673706 31.32806396 C-3.17555448 28.30191361 -3.1504533 25.2760607 -3.125 22.25 C-3.11496772 20.19661886 -3.1058423 18.14323308 -3.09765625 16.08984375 C-3.07562141 11.05978146 -3.04110462 6.02994114 -3 1 C-1 0 -1 0 0 0 Z " fill="#0852C5" transform="translate(235,155)"/>
<path d="M0 0 C0.33 0 0.66 0 1 0 C1 1.65 1 3.3 1 5 C1.66 5 2.32 5 3 5 C3 5.66 3 6.32 3 7 C3.99 7.33 4.98 7.66 6 8 C6.33 9.65 6.66 11.3 7 13 C7.99 13 8.98 13 10 13 C10.19335938 13.61488281 10.38671875 14.22976563 10.5859375 14.86328125 C10.84632813 15.67152344 11.10671875 16.47976563 11.375 17.3125 C11.63023437 18.11300781 11.88546875 18.91351563 12.1484375 19.73828125 C12.98831811 22.22724528 12.98831811 22.22724528 15 25 C15 25.99 15 26.98 15 28 C15.66 28 16.32 28 17 28 C17.66 30.31 18.32 32.62 19 35 C19.66 35 20.32 35 21 35 C20.67 36.32 20.34 37.64 20 39 C20.66 39.33 21.32 39.66 22 40 C21.01 40 20.02 40 19 40 C17.28518514 37.92922177 15.83246008 35.93221982 14.375 33.6875 C13.94131104 33.02830566 13.50762207 32.36911133 13.06079102 31.68994141 C-0.02852794 11.19054364 -0.02852794 11.19054364 -1 1 C-0.67 0.67 -0.34 0.34 0 0 Z " fill="#074ADC" transform="translate(198,402)"/>
<path d="M0 0 C12.54 0 25.08 0 38 0 C34.53329287 2.31113808 33.07233476 2.27310174 28.9765625 2.34375 C27.790625 2.37339844 26.6046875 2.40304688 25.3828125 2.43359375 C24.14273438 2.45550781 22.90265625 2.47742188 21.625 2.5 C19.17951951 2.54348658 16.73416894 2.59525494 14.2890625 2.65625 C13.20318848 2.67494141 12.11731445 2.69363281 10.99853516 2.71289062 C7.7134338 3.02743868 4.41969175 3.58030825 2 6 C1.87636703 7.96287766 1.8220456 9.93015158 1.79467773 11.89672852 C1.77473251 13.15796036 1.75478729 14.4191922 1.73423767 15.71864319 C1.71725205 17.10539627 1.70037329 18.49215066 1.68359375 19.87890625 C1.66303074 21.2899589 1.64203445 22.70100529 1.62062073 24.11204529 C1.56533245 27.8323359 1.51595314 31.55268273 1.46777344 35.27307129 C1.41760758 39.06686425 1.36189592 42.86057523 1.30664062 46.65429688 C1.19897649 54.10279523 1.09755003 61.55136159 1 69 C0.67 69 0.34 69 0 69 C0 46.23 0 23.46 0 0 Z " fill="#095AE1" transform="translate(189,201)"/>
<path d="M0 0 C1.63263061 4.05557923 0.27595305 7.60281508 -0.8125 11.625 C-2.65046423 18.81693118 -3.72379648 25.89806441 -4.40356445 33.28564453 C-4.91776517 38.83553033 -4.91776517 38.83553033 -6 41 C-6.3052622 45.65275976 -6.3052622 45.65275976 -5 50 C-5.33 50.66 -5.66 51.32 -6 52 C-6.66 52 -7.32 52 -8 52 C-9.02939067 20.75720125 -9.02939067 20.75720125 -3 7 C-2.44325813 5.69563334 -1.88726423 4.39094717 -1.33203125 3.0859375 C-0.89246094 2.06757812 -0.45289063 1.04921875 0 0 Z " fill="#0D67D2" transform="translate(420,121)"/>
<path d="M0 0 C5.41079958 1.75728385 10.68295914 3.79971705 15.9765625 5.87890625 C28.17582181 10.40240421 43.8482779 9.22668595 56 5 C55.67 6.32 55.34 7.64 55 9 C53.35 9.33 51.7 9.66 50 10 C50 10.99 50 11.98 50 13 C49.34 13 48.68 13 48 13 C48 12.34 48 11.68 48 11 C46.02 11.66 44.04 12.32 42 13 C41.34 12.34 40.68 11.68 40 11 C37.18851119 10.80022859 34.49723031 10.72183228 31.6875 10.75 C30.92759766 10.74226563 30.16769531 10.73453125 29.38476562 10.7265625 C25.14081895 10.74131123 21.87164516 11.05258567 18 13 C18 11.68 18 10.36 18 9 C17.278125 8.87625 16.55625 8.7525 15.8125 8.625 C13.03474782 8.00772174 10.62688588 7.07769677 8 6 C6.67323492 5.64141484 5.34164079 5.2981424 4 5 C4 4.34 4 3.68 4 3 C2.68 3 1.36 3 0 3 C0 2.01 0 1.02 0 0 Z " fill="#0C55D0" transform="translate(314,403)"/>
<path d="M0 0 C0.99 0 1.98 0 3 0 C3 10.23 3 20.46 3 31 C12.57 31.33 22.14 31.66 32 32 C32 21.77 32 11.54 32 1 C32.33 1 32.66 1 33 1 C33 11.56 33 22.12 33 33 C22.11 33 11.22 33 0 33 C0 22.11 0 11.22 0 0 Z " fill="#134A89" transform="translate(135,65)"/>
<path d="M0 0 C0.33 0 0.66 0 1 0 C2.04011326 5.20426776 2.21439329 10.26950023 2.31640625 15.5546875 C2.33718735 16.45623566 2.35796844 17.35778381 2.37937927 18.28665161 C2.4444458 21.1493614 2.50355914 24.01215819 2.5625 26.875 C2.60572607 28.82292544 2.64934164 30.77084229 2.69335938 32.71875 C2.80008289 37.47907889 2.90146964 42.23949476 3 47 C3.66 47 4.32 47 5 47 C5 47.66 5 48.32 5 49 C11.6 49 18.2 49 25 49 C25 49.33 25 49.66 25 50 C21.02084841 50.02886984 17.04172347 50.04675406 13.0625 50.0625 C11.35803711 50.07506836 11.35803711 50.07506836 9.61914062 50.08789062 C8.53955078 50.09111328 7.45996094 50.09433594 6.34765625 50.09765625 C4.84730835 50.10551147 4.84730835 50.10551147 3.31665039 50.11352539 C1 50 1 50 0 49 C-0.09319449 47.4651703 -0.117458 45.92607918 -0.11352539 44.38842773 C-0.11344986 43.40748642 -0.11337433 42.4265451 -0.11329651 41.4158783 C-0.10813522 40.3492244 -0.10297394 39.2825705 -0.09765625 38.18359375 C-0.0962413 37.0974025 -0.09482635 36.01121124 -0.09336853 34.8921051 C-0.08775048 31.40720925 -0.07519492 27.92237658 -0.0625 24.4375 C-0.05748733 22.08138113 -0.05292402 19.72526126 -0.04882812 17.36914062 C-0.03777519 11.57940536 -0.02101951 5.78970719 0 0 Z " fill="#06409F" transform="translate(186,101)"/>
<path d="M0 0 C-3.12048371 4.26363121 -6.59944237 7.31439153 -10.75 10.5 C-11.37326172 10.98122314 -11.99652344 11.46244629 -12.63867188 11.95825195 C-25.5140657 21.81074179 -25.5140657 21.81074179 -32 21 C-32 21.66 -32 22.32 -32 23 C-33.65 23.33 -35.3 23.66 -37 24 C-37 23.34 -37 22.68 -37 22 C-33.5647952 19.70986347 -32.014669 19.82157027 -28 20 C-27.773125 19.360625 -27.54625 18.72125 -27.3125 18.0625 C-26 16 -26 16 -23.5 15.4375 C-22.675 15.293125 -21.85 15.14875 -21 15 C-20.34 14.01 -19.68 13.02 -19 12 C-18.34 12 -17.68 12 -17 12 C-16.34 10.68 -15.68 9.36 -15 8 C-13.35 8 -11.7 8 -10 8 C-10 6.68 -10 5.36 -10 4 C-6.76715821 0.67479131 -4.64351766 -0.53068773 0 0 Z " fill="#0857D7" transform="translate(456,460)"/>
<path d="M0 0 C0 0.33 0 0.66 0 1 C-0.845625 1.02578125 -1.69125 1.0515625 -2.5625 1.078125 C-8.84970874 1.39248544 -13.83163535 1.83282168 -19.3046875 5.02734375 C-21 6 -21 6 -24.0625 7 C-31.36157311 9.48479085 -34.96584493 12.70501411 -39.421875 18.87890625 C-40.83224122 20.77452224 -42.28454791 22.38272138 -44 24 C-44.33 23.01 -44.66 22.02 -45 21 C-41.26499889 15.17593048 -35.46276999 10.17741234 -30 6 C-28.86884766 5.12408203 -28.86884766 5.12408203 -27.71484375 4.23046875 C-19.03858997 -1.49559055 -9.97556962 -0.5582184 0 0 Z " fill="#0F73ED" transform="translate(538,229)"/>
<path d="M0 0 C9.24 0 18.48 0 28 0 C28 8.91 28 17.82 28 27 C27.67 27 27.34 27 27 27 C26.505 15.12 26.505 15.12 26 3 C18.41 3 10.82 3 3 3 C2.04831317 5.85506049 1.8099054 7.90937282 1.68359375 10.88671875 C1.64169922 11.82451172 1.59980469 12.76230469 1.55664062 13.72851562 C1.51732422 14.70498047 1.47800781 15.68144531 1.4375 16.6875 C1.39431641 17.67556641 1.35113281 18.66363281 1.30664062 19.68164062 C1.20058346 22.12095546 1.09852286 24.56037113 1 27 C0.67 27 0.34 27 0 27 C0 18.09 0 9.18 0 0 Z " fill="#1B539E" transform="translate(186,32)"/>
<path d="M0 0 C0.99 0 1.98 0 3 0 C3.33 8.25 3.66 16.5 4 25 C4.66 25 5.32 25 6 25 C6.13277344 25.98742187 6.26554688 26.97484375 6.40234375 27.9921875 C6.57894531 29.27351563 6.75554687 30.55484375 6.9375 31.875 C7.19853516 33.78925781 7.19853516 33.78925781 7.46484375 35.7421875 C7.81433227 38.87559454 7.81433227 38.87559454 9 41 C8.34 41.99 7.68 42.98 7 44 C6.36896152 42.1895935 5.74553125 40.37653479 5.125 38.5625 C4.77695313 37.55316406 4.42890625 36.54382813 4.0703125 35.50390625 C1.55324266 27.26371777 0.63579583 19.54919578 0.375 10.9375 C0.33632812 9.88111328 0.29765625 8.82472656 0.2578125 7.73632812 C0.16446907 5.15771592 0.07868747 2.57909392 0 0 Z " fill="#083BB0" transform="translate(189,358)"/>
<path d="M0 0 C1.05713529 3.19916631 0.95719677 4.95196786 -0.22265625 8.08984375 C-0.51132568 8.8686792 -0.79999512 9.64751465 -1.09741211 10.44995117 C-1.41589111 11.27084229 -1.73437012 12.0917334 -2.0625 12.9375 C-2.38033447 13.77837158 -2.69816895 14.61924316 -3.02563477 15.4855957 C-5.70615427 22.47573492 -8.70449801 29.27621022 -12 36 C-12.33 36 -12.66 36 -13 36 C-12.88590407 34.54077307 -12.75834456 33.08259402 -12.625 31.625 C-12.55539062 30.81289063 -12.48578125 30.00078125 -12.4140625 29.1640625 C-12 27 -12 27 -10 25 C-9.35232207 22.42938689 -9.35232207 22.42938689 -9 20 C-8.34 20 -7.68 20 -7 20 C-6.96261719 19.43152344 -6.92523438 18.86304688 -6.88671875 18.27734375 C-6.43108789 12.92591466 -5.48807772 8.77710922 -3 4 C-2.34 3.67 -1.68 3.34 -1 3 C-0.67 2.01 -0.34 1.02 0 0 Z " fill="#0C64D5" transform="translate(494,391)"/>
<path d="M0 0 C2 2 2 2 2 5 C2.66 5.33 3.32 5.66 4 6 C3.34 6 2.68 6 2 6 C1.7525 6.5775 1.505 7.155 1.25 7.75 C-0.21502278 10.38704101 -1.67502077 12.07358864 -4 14 C-6.75 14.75 -6.75 14.75 -9 15 C-9 14.34 -9 13.68 -9 13 C-10.32 13.33 -11.64 13.66 -13 14 C-12.34 13.360625 -11.68 12.72125 -11 12.0625 C-7.14346256 8.2170765 -3.59166578 4.09075581 0 0 Z " fill="#034DCC" transform="translate(397,386)"/>
<path d="M0 0 C0 0.66 0 1.32 0 2 C-1.60875 2.61875 -1.60875 2.61875 -3.25 3.25 C-6.55617557 4.6431264 -8.50359139 6.41443394 -11 9 C-11.99 9 -12.98 9 -14 9 C-14 9.66 -14 10.32 -14 11 C-14.66 11 -15.32 11 -16 11 C-16.268125 11.55300781 -16.53625 12.10601562 -16.8125 12.67578125 C-18.12149462 15.23779376 -19.53649516 17.71051805 -21 20.1875 C-21.515625 21.06792969 -22.03125 21.94835937 -22.5625 22.85546875 C-24 25 -24 25 -26 26 C-26 18.56821518 -21.96893722 14.21989364 -17 9 C-12.13827076 4.54750723 -6.94514424 0 0 0 Z " fill="#011A67" transform="translate(440,147)"/>
<path d="M0 0 C0.19789024 3.22861733 0.38146345 6.45789727 0.5625 9.6875 C0.61857422 10.59951172 0.67464844 11.51152344 0.73242188 12.45117188 C0.78076172 13.33740234 0.82910156 14.22363281 0.87890625 15.13671875 C0.94960327 16.35427856 0.94960327 16.35427856 1.02172852 17.59643555 C0.99838228 20.1789485 0.5804792 22.48849909 0 25 C-0.99 25 -1.98 25 -3 25 C-3 17.08 -3 9.16 -3 1 C-1 0 -1 0 0 0 Z " fill="#0C4CB0" transform="translate(235,155)"/>
<path d="M0 0 C1.0395832 3.63854119 1.53022588 6.69210949 0.0625 10.3125 C-1.17839229 13.0953064 -1.17839229 13.0953064 -1.375 16.6875 C-2 20 -2 20 -4.0625 21.4375 C-4.701875 21.623125 -5.34125 21.80875 -6 22 C-7.40253228 19.2037564 -8.32206523 17.09846287 -7.41503906 14.00488281 C-6.40238033 11.82149677 -5.29896621 9.72598159 -4.125 7.625 C-3.73441406 6.88894531 -3.34382813 6.15289062 -2.94140625 5.39453125 C-1.97880798 3.58672474 -0.99175828 1.79197525 0 0 Z " fill="#0744CA" transform="translate(405,369)"/>
<path d="M0 0 C12.54 0 25.08 0 38 0 C34.29329628 2.47113581 31.34807819 2.34788589 27.05078125 2.4140625 C26.27816452 2.43342865 25.50554779 2.4527948 24.70951843 2.4727478 C22.2439576 2.53248479 19.77834993 2.57890486 17.3125 2.625 C15.6399537 2.66318525 13.96742695 2.70223731 12.29492188 2.7421875 C8.19677353 2.83818133 4.09853312 2.92223377 0 3 C0 2.01 0 1.02 0 0 Z " fill="#0D57CE" transform="translate(189,201)"/>
<path d="M0 0 C0.33 1.65 0.66 3.3 1 5 C-9.56 5 -20.12 5 -31 5 C-31 4.34 -31 3.68 -31 3 C-22.85315786 2.3023126 -15.11696631 1.71837374 -7 3 C-7 2.34 -7 1.68 -7 1 C-2.25 0 -2.25 0 0 0 Z " fill="#1975F0" transform="translate(479,138)"/>
<path d="M0 0 C1.05283182 3.15849546 1.29904469 4.030755 0 7 C-3.73813168 9.80359876 -7.33798706 11 -12 11 C-12 11.99 -12 12.98 -12 14 C-13.32 13.34 -14.64 12.68 -16 12 C-10.94464135 7.48244546 -5.70985379 3.65119902 0 0 Z " fill="#0A76D5" transform="translate(460,78)"/>
<path d="M0 0 C0.33 0.66 0.66 1.32 1 2 C-3.71812081 12.9261745 -3.71812081 12.9261745 -8.125 15 C-10.3530435 15.91202978 -10.3530435 15.91202978 -11 19 C-12 22 -12 22 -14.125 23.375 C-14.74375 23.58125 -15.3625 23.7875 -16 24 C-12.60992092 14.82198102 -6.66012853 7.06499956 0 0 Z " fill="#095EB3" transform="translate(437,97)"/>
<path d="M0 0 C1.66949355 0.03767954 3.33759288 0.15428796 5 0.3125 C5.9075 0.39113281 6.815 0.46976563 7.75 0.55078125 C8.4925 0.69902344 9.235 0.84726563 10 1 C10.495 1.99 10.495 1.99 11 3 C-4.84 3 -20.68 3 -37 3 C-37 2.67 -37 2.34 -37 2 C-35.91468994 1.97494385 -34.82937988 1.9498877 -33.71118164 1.92407227 C-29.698684 1.83016245 -25.68636618 1.72990233 -21.67407227 1.62768555 C-19.93485712 1.58427427 -18.19559765 1.54260388 -16.45629883 1.50268555 C-13.96161512 1.44513232 -11.4671559 1.3813958 -8.97265625 1.31640625 C-8.19036148 1.29969376 -7.40806671 1.28298126 -6.60206604 1.26576233 C-3.00128219 1.49351269 -3.00128219 1.49351269 0 0 Z " fill="#2271D9" transform="translate(485,141)"/>
<path d="M0 0 C0.66 0 1.32 0 2 0 C2.1970602 1.56132309 2.38220155 3.12415264 2.5625 4.6875 C2.66691406 5.55761719 2.77132813 6.42773438 2.87890625 7.32421875 C3 10 3 10 2.51367188 12.30859375 C1.96449118 15.18605003 1.88668786 17.81062932 1.90234375 20.73828125 C1.90556641 21.80498047 1.90878906 22.87167969 1.91210938 23.97070312 C1.92048828 25.07349609 1.92886719 26.17628906 1.9375 27.3125 C1.94201172 28.43462891 1.94652344 29.55675781 1.95117188 30.71289062 C1.96292687 33.4753151 1.97935923 36.23762998 2 39 C1.01 39.495 1.01 39.495 0 40 C0 26.8 0 13.6 0 0 Z " fill="#061A69" transform="translate(413,174)"/>
<path d="M0 0 C0 0.66 0 1.32 0 2 C-12.87 1.505 -12.87 1.505 -26 1 C-26.33 9.91 -26.66 18.82 -27 28 C-27.33 28 -27.66 28 -28 28 C-28 18.76 -28 9.52 -28 0 C-21.9053125 -0.2784375 -21.9053125 -0.2784375 -15.6875 -0.5625 C-14.40963623 -0.62381104 -13.13177246 -0.68512207 -11.81518555 -0.74829102 C-10.8075415 -0.79139404 -9.79989746 -0.83449707 -8.76171875 -0.87890625 C-7.2142395 -0.94960327 -7.2142395 -0.94960327 -5.63549805 -1.02172852 C-3 -1 -3 -1 0 0 Z " fill="#0D6BD5" transform="translate(165,68)"/>
<path d="M0 0 C1.60340088 4.01360857 0.33019642 7.47486121 -0.8125 11.4375 C-0.99103516 12.09298828 -1.16957031 12.74847656 -1.35351562 13.42382812 C-2.36076825 17.04921031 -3.52597922 20.5383856 -5 24 C-5.66 24 -6.32 24 -7 24 C-7.33 25.32 -7.66 26.64 -8 28 C-7.65276442 18.45102142 -4.26646326 8.53292652 0 0 Z " fill="#0B4DA4" transform="translate(420,121)"/>
<path d="M0 0 C3.21277529 4.07211945 5.63712478 8.52117607 8.18359375 13.02734375 C9.93398987 15.89197051 11.84622109 18.42966605 14 21 C11.05043472 19.63055898 8.47531189 18.12169591 6 16 C6 15.34 6 14.68 6 14 C5.34 14 4.68 14 4 14 C4 12.68 4 11.36 4 10 C3.34 10 2.68 10 2 10 C2 9.34 2 8.68 2 8 C1.01 8.33 0.02 8.66 -1 9 C-0.67 6.03 -0.34 3.06 0 0 Z " fill="#0B4FCE" transform="translate(291,374)"/>
<path d="M0 0 C0.33 0.66 0.66 1.32 1 2 C0.04060332 3.69036558 -0.96642853 5.35394174 -2 7 C-2.309375 7.804375 -2.61875 8.60875 -2.9375 9.4375 C-4.25543316 12.61604467 -5.9486193 15.24345719 -8 18 C-8.66 18 -9.32 18 -10 18 C-10.0825 18.78375 -10.165 19.5675 -10.25 20.375 C-11 23 -11 23 -13 24.1875 C-13.66 24.455625 -14.32 24.72375 -15 25 C-15.33 25.66 -15.66 26.32 -16 27 C-15.49396008 24.83125748 -15.00016187 23.00032373 -14 21 C-13.34 21 -12.68 21 -12 21 C-11.74089844 20.2884375 -11.48179687 19.576875 -11.21484375 18.84375 C-9.92374206 15.82149266 -8.35852143 13.25003711 -6.5625 10.5 C-4.30917425 7.03484247 -2.10682385 3.55647328 0 0 Z " fill="#064CD7" transform="translate(434,339)"/>
<path d="M0 0 C1.1260299 3.37808971 1.27698354 5.64791822 0 9 C-2.1768243 11.2095585 -4.56670015 13.08370612 -7 15 C-7.66 15.66 -8.32 16.32 -9 17 C-8.75 13.625 -8.75 13.625 -8 10 C-6.68352881 9.30062468 -5.34977849 8.63270867 -4 8 C-3.62633887 6.00714063 -3.29259485 4.00636471 -3 2 C-2.01 1.34 -1.02 0.68 0 0 Z " fill="#0979EB" transform="translate(429,111)"/>
<path d="M0 0 C-0.33 1.32 -0.66 2.64 -1 4 C-2.65 4.33 -4.3 4.66 -6 5 C-6 5.99 -6 6.98 -6 8 C-6.66 8 -7.32 8 -8 8 C-8 7.34 -8 6.68 -8 6 C-9.98 6.66 -11.96 7.32 -14 8 C-14.66 7.01 -15.32 6.02 -16 5 C-4.86363636 0 -4.86363636 0 0 0 Z " fill="#045EDD" transform="translate(370,408)"/>
<path d="M0 0 C0.85078125 0.00322266 1.7015625 0.00644531 2.578125 0.00976562 C3.46757813 0.01814453 4.35703125 0.02652344 5.2734375 0.03515625 C6.170625 0.03966797 7.0678125 0.04417969 7.9921875 0.04882812 C10.21100398 0.06063034 12.42968768 0.0770947 14.6484375 0.09765625 C14.6484375 0.42765625 14.6484375 0.75765625 14.6484375 1.09765625 C13.8028125 1.1234375 12.9571875 1.14921875 12.0859375 1.17578125 C4.31404472 1.49605756 4.31404472 1.49605756 -2.8515625 4.22265625 C-6.3515625 6.09765625 -6.3515625 6.09765625 -9.3515625 5.84765625 C-10.0115625 5.60015625 -10.6715625 5.35265625 -11.3515625 5.09765625 C-5.06146011 -0.03374307 -5.06146011 -0.03374307 0 0 Z " fill="#0970E5" transform="translate(523.3515625,228.90234375)"/>
<path d="M0 0 C1.65 0 3.3 0 5 0 C5.67693777 4.51291848 4.73930443 6.80888571 2.125 10.375 C0.5078125 12.4609375 0.5078125 12.4609375 -1 14 C-1.66 14 -2.32 14 -3 14 C-3 13.01 -3 12.02 -3 11 C-2.34 11 -1.68 11 -1 11 C-0.67 7.37 -0.34 3.74 0 0 Z " fill="#13BCEB" transform="translate(728,67)"/>
<path d="M0 0 C0.66 1.32 1.32 2.64 2 4 C0.85546875 5.953125 0.85546875 5.953125 -1 8 C-3.69921875 8.609375 -3.69921875 8.609375 -6.6875 8.75 C-7.68136719 8.80671875 -8.67523438 8.8634375 -9.69921875 8.921875 C-10.45847656 8.94765625 -11.21773438 8.9734375 -12 9 C-12 8.34 -12 7.68 -12 7 C-11.21753906 6.57847656 -10.43507813 6.15695312 -9.62890625 5.72265625 C-8.61699219 5.17480469 -7.60507812 4.62695312 -6.5625 4.0625 C-5.55316406 3.51722656 -4.54382813 2.97195313 -3.50390625 2.41015625 C-1.13329507 1.22300532 -1.13329507 1.22300532 0 0 Z " fill="#094BC5" transform="translate(383,400)"/>
<path d="M0 0 C-0.375 2.4375 -0.375 2.4375 -1 5 C-1.99 5.495 -1.99 5.495 -3 6 C-3 4.68 -3 3.36 -3 2 C-8.94 1.67 -14.88 1.34 -21 1 C-21 0.67 -21 0.34 -21 0 C-5.6 -2.8 -5.6 -2.8 0 0 Z " fill="#22BCE2" transform="translate(736,65)"/>
<path d="M0 0 C0 5.66539087 -3.87804175 11.38493128 -7 16 C-7.99 16.66 -8.98 17.32 -10 18 C-11.01187895 19.65948148 -12.0126546 21.32580562 -13 23 C-13.66 23.33 -14.32 23.66 -15 24 C-14.71125 23.443125 -14.4225 22.88625 -14.125 22.3125 C-12.9586747 19.91505355 -11.9660119 17.48403061 -11 15 C-10.34 15 -9.68 15 -9 15 C-8.566875 13.5459375 -8.566875 13.5459375 -8.125 12.0625 C-7 9 -7 9 -5 8 C-3.91852299 6.38240139 -3.91852299 6.38240139 -2.9375 4.5 C-1.08071749 1.08071749 -1.08071749 1.08071749 0 0 Z " fill="#0449D1" transform="translate(450,315)"/>
<path d="M0 0 C1.32 0.33 2.64 0.66 4 1 C-0.65221565 7.20808909 -5.53331661 11.50200537 -13 14 C-13.66 13.67 -14.32 13.34 -15 13 C-14.67 12.34 -14.34 11.68 -14 11 C-12.865625 10.690625 -11.73125 10.38125 -10.5625 10.0625 C-6.76783002 9.34378643 -6.76783002 9.34378643 -5 6 C-4.01 6 -3.02 6 -2 6 C-1.855625 5.38125 -1.71125 4.7625 -1.5625 4.125 C-1 2 -1 2 0 0 Z " fill="#18ABE1" transform="translate(685,130)"/>
<path d="M0 0 C11.22 0 22.44 0 34 0 C34 0.33 34 0.66 34 1 C33.21351074 1.01458252 32.42702148 1.02916504 31.61669922 1.04418945 C28.03565042 1.11889363 24.45551089 1.21548207 20.875 1.3125 C19.6375 1.33505859 18.4 1.35761719 17.125 1.38085938 C15.92617188 1.41630859 14.72734375 1.45175781 13.4921875 1.48828125 C11.84259033 1.52755737 11.84259033 1.52755737 10.15966797 1.56762695 C6.60122158 2.05456935 4.1088528 3.24077434 1 5 C0.67 3.35 0.34 1.7 0 0 Z " fill="#1F72C5" transform="translate(512,228)"/>
<path d="M0 0 C0.721875 0.268125 1.44375 0.53625 2.1875 0.8125 C-1.61661834 4.73189465 -5.62826108 8.30352731 -9.8125 11.8125 C-8.62591588 6.31106454 -6.83778129 -0.45585209 0 0 Z " fill="#0D87EB" transform="translate(445.8125,91.1875)"/>
<path d="M0 0 C0.66 0 1.32 0 2 0 C2.03738281 0.68707031 2.07476562 1.37414062 2.11328125 2.08203125 C2.17902344 2.98308594 2.24476563 3.88414062 2.3125 4.8125 C2.37050781 5.70582031 2.42851562 6.59914063 2.48828125 7.51953125 C2.77063853 10.0544983 2.77063853 10.0544983 4.53125 11.5 C6 13 6 13 6.29296875 15.48046875 C6.25816406 16.37378906 6.22335938 17.26710938 6.1875 18.1875 C6.16042969 19.08855469 6.13335937 19.98960937 6.10546875 20.91796875 C6.07066406 21.60503906 6.03585938 22.29210937 6 23 C5.34 23 4.68 23 4 23 C0.04199312 16.40332186 0.575744 7.46017226 0 0 Z " fill="#074BE0" transform="translate(195,384)"/>
<path d="M0 0 C0.66 0.66 1.32 1.32 2 2 C3.32 2 4.64 2 6 2 C6.66 3.65 7.32 5.3 8 7 C-3.70615034 5.44191344 -3.70615034 5.44191344 -8 1 C-5.23749964 -0.38125018 -3.05268901 -0.19079306 0 0 Z " fill="#0449DC" transform="translate(288,488)"/>
<path d="M0 0 C-0.33 1.65 -0.66 3.3 -1 5 C-1.99 5 -2.98 5 -4 5 C-4.598125 5.33 -5.19625 5.66 -5.8125 6 C-8.63085484 7.28839078 -10.9378255 7.13918975 -14 7 C-11.86258916 3.79388373 -10.97182207 3.27363803 -7.5625 1.8125 C-6.78003906 1.46832031 -5.99757813 1.12414062 -5.19140625 0.76953125 C-3 0 -3 0 0 0 Z " fill="#0F80DB" transform="translate(476,72)"/>
<path d="M0 0 C0.66 0 1.32 0 2 0 C2.27585566 1.93398808 2.51987415 3.87253909 2.75 5.8125 C2.88921875 6.89144531 3.0284375 7.97039062 3.171875 9.08203125 C3 12 3 12 1.015625 13.88671875 C0.35046875 14.25410156 -0.3146875 14.62148438 -1 15 C-1.33 12.36 -1.66 9.72 -2 7 C-1.34 7 -0.68 7 0 7 C0 4.69 0 2.38 0 0 Z " fill="#0D38AD" transform="translate(410,350)"/>
<path d="M0 0 C1.33277294 2.66554587 0.71619757 3.64383594 -0.1875 6.4375 C-1.44312783 10.05324311 -2.46832393 12.173271 -6 14 C-6.42670076 10.51527717 -6.64789556 7.9813155 -4.6640625 4.9765625 C-3.16390788 3.25103253 -1.63343216 1.59940232 0 0 Z " fill="#085DE2" transform="translate(465,293)"/>
<path d="M0 0 C0.99 0 1.98 0 3 0 C3.33 1.98 3.66 3.96 4 6 C4.99 6 5.98 6 7 6 C9 9 9 9 10 11 C9.67 11.66 9.34 12.32 9 13 C9.66 13.33 10.32 13.66 11 14 C10.01 14 9.02 14 8 14 C5.95703125 11.4453125 5.95703125 11.4453125 3.8125 8.125 C3.09707031 7.03445313 2.38164062 5.94390625 1.64453125 4.8203125 C0 2 0 2 0 0 Z " fill="#0730AC" transform="translate(209,428)"/>
<path d="M0 0 C0.33 0.99 0.66 1.98 1 3 C-0.6171875 5.69921875 -0.6171875 5.69921875 -2.875 8.6875 C-3.61492188 9.68136719 -4.35484375 10.67523438 -5.1171875 11.69921875 C-5.73851562 12.45847656 -6.35984375 13.21773437 -7 14 C-7.33 14 -7.66 14 -8 14 C-7.67 11.36 -7.34 8.72 -7 6 C-6.01 5.67 -5.02 5.34 -4 5 C-3.30062468 3.68352881 -2.63270867 2.34977849 -2 1 C-1.34 0.67 -0.68 0.34 0 0 Z " fill="#15B9E0" transform="translate(723,82)"/>
<path d="M0 0 C0 0.33 0 0.66 0 1 C-3.3 1.33 -6.6 1.66 -10 2 C-10 2.66 -10 3.32 -10 4 C-12.97 4.66 -15.94 5.32 -19 6 C-19 5.01 -19 4.02 -19 3 C-12.43345544 0.6969113 -6.96327638 -0.33693273 0 0 Z " fill="#198CD8" transform="translate(502,66)"/>
<path d="M0 0 C1.65 0 3.3 0 5 0 C5.103125 0.61875 5.20625 1.2375 5.3125 1.875 C5.87525373 4.36526484 5.87525373 4.36526484 9 6 C9 6.99 9 7.98 9 9 C10.32 9.33 11.64 9.66 13 10 C12.01 10.66 11.02 11.32 10 12 C8.33032474 10.19019128 6.66417692 8.3773524 5 6.5625 C4.28457031 5.7880957 4.28457031 5.7880957 3.5546875 4.99804688 C0 1.11328125 0 1.11328125 0 0 Z " fill="#0A32AF" transform="translate(219,444)"/>
<path d="M0 0 C2 2 2 2 2 5 C2.66 5.33 3.32 5.66 4 6 C3.34 6 2.68 6 2 6 C1.773125 6.598125 1.54625 7.19625 1.3125 7.8125 C-0.33811133 10.56351888 -2.1972081 11.52484637 -5 13 C-3.58192622 8.52761347 -1.88695626 4.28853694 0 0 Z " fill="#064BD3" transform="translate(397,386)"/>
<path d="M0 0 C4.34671293 1.41367259 8.6135639 2.97260641 12.875 4.625 C14.60363281 5.29402344 14.60363281 5.29402344 16.3671875 5.9765625 C17.23601562 6.31429688 18.10484375 6.65203125 19 7 C19 7.33 19 7.66 19 8 C14.73924812 8.19817451 11.87897772 7.73533214 8 6 C6.67323492 5.64141484 5.34164079 5.2981424 4 5 C4 4.34 4 3.68 4 3 C2.68 3 1.36 3 0 3 C0 2.01 0 1.02 0 0 Z " fill="#0A4ACB" transform="translate(314,403)"/>
<path d="M0 0 C0.33 0.66 0.66 1.32 1 2 C0.34 2 -0.32 2 -1 2 C-1.268125 2.928125 -1.53625 3.85625 -1.8125 4.8125 C-2.90977245 7.75781025 -3.53357169 9.15017877 -6 11 C-6.66 11 -7.32 11 -8 11 C-7.9071875 12.175625 -7.9071875 12.175625 -7.8125 13.375 C-7.874375 14.24125 -7.93625 15.1075 -8 16 C-8.99 16.66 -9.98 17.32 -11 18 C-11 14.30581799 -9.71820705 12.22163822 -8 9 C-7.34 9 -6.68 9 -6 9 C-6 8.34 -6 7.68 -6 7 C-5.34 7 -4.68 7 -4 7 C-3.71125 6.030625 -3.4225 5.06125 -3.125 4.0625 C-2 1 -2 1 0 0 Z " fill="#0A58E7" transform="translate(421,363)"/>
<path d="M0 0 C1 2 1 2 0.36328125 4.0234375 C-1.5835528 8.38029287 -3.2276548 11.90128787 -7 15 C-6.72694671 8.44672101 -4.18788859 4.93069452 0 0 Z " fill="#021C6F" transform="translate(421,158)"/>
<path d="M0 0 C0.33 0 0.66 0 1 0 C1 6.6 1 13.2 1 20 C-1.97 20.33 -4.94 20.66 -8 21 C-7.67 20.34 -7.34 19.68 -7 19 C-5.35 19 -3.7 19 -2 19 C-2 18.34 -2 17.68 -2 17 C-1.34 17 -0.68 17 0 17 C0 11.39 0 5.78 0 0 Z " fill="#106ED4" transform="translate(212,39)"/>
<path d="M0 0 C-2 2 -2 2 -4.61376953 2.22705078 C-5.69255371 2.21657715 -6.77133789 2.20610352 -7.8828125 2.1953125 C-9.04941406 2.18886719 -10.21601563 2.18242187 -11.41796875 2.17578125 C-12.64128906 2.15902344 -13.86460937 2.14226562 -15.125 2.125 C-16.35605469 2.11597656 -17.58710938 2.10695312 -18.85546875 2.09765625 C-21.90383815 2.07402548 -24.95182382 2.04108054 -28 2 C-28 1.67 -28 1.34 -28 1 C-27.34926514 0.97494385 -26.69853027 0.9498877 -26.02807617 0.92407227 C-23.08101954 0.80806298 -20.1342787 0.68535885 -17.1875 0.5625 C-16.16333984 0.52318359 -15.13917969 0.48386719 -14.08398438 0.44335938 C-13.10107422 0.40146484 -12.11816406 0.35957031 -11.10546875 0.31640625 C-10.19949951 0.27974854 -9.29353027 0.24309082 -8.36010742 0.20532227 C-1.24183757 -0.41394586 -1.24183757 -0.41394586 0 0 Z " fill="#055FE5" transform="translate(230,202)"/>
<path d="M0 0 C0.33 0 0.66 0 1 0 C1.67099984 2.60311992 2.33695338 5.20735398 3 7.8125 C3.28617187 8.91948242 3.28617187 8.91948242 3.578125 10.04882812 C4.35262914 13.10535341 5 15.83373478 5 19 C4.01 19 3.02 19 2 19 C0.82706111 12.6221448 -0.29530838 6.49678438 0 0 Z " fill="#064ECC" transform="translate(286,355)"/>
<path d="M0 0 C2.97 0.495 2.97 0.495 6 1 C6 1.99 6 2.98 6 4 C6.99 4 7.98 4 9 4 C9.33 4.99 9.66 5.98 10 7 C10.66 7.66 11.32 8.32 12 9 C8.0557333 9 7.17603973 7.68625863 4.3125 5.0625 C3.50425781 4.33160156 2.69601563 3.60070312 1.86328125 2.84765625 C1.24839844 2.23792969 0.63351563 1.62820313 0 1 C0 0.67 0 0.34 0 0 Z " fill="#0632AA" transform="translate(234,460)"/>
<path d="M0 0 C0.66 0.33 1.32 0.66 2 1 C1.50628906 1.75925781 1.01257813 2.51851563 0.50390625 3.30078125 C-0.13675781 4.29464844 -0.77742188 5.28851563 -1.4375 6.3125 C-2.07558594 7.29863281 -2.71367187 8.28476562 -3.37109375 9.30078125 C-5.10615606 11.95276993 -5.10615606 11.95276993 -6 15 C-6.66 15 -7.32 15 -8 15 C-6.04225352 7.16901408 -6.04225352 7.16901408 -3 4 C-2.34 4 -1.68 4 -1 4 C-0.67 2.68 -0.34 1.36 0 0 Z " fill="#003BB9" transform="translate(475,275)"/>
<path d="M0 0 C0.66 0 1.32 0 2 0 C2 0.66 2 1.32 2 2 C3.093125 2.2475 4.18625 2.495 5.3125 2.75 C9.05908409 4.02002851 10.10595266 4.65756352 12 8 C9.36 7.67 6.72 7.34 4 7 C3.67 5.68 3.34 4.36 3 3 C2.34 3 1.68 3 1 3 C0.67 2.01 0.34 1.02 0 0 Z " fill="#0642E1" transform="translate(253,472)"/>
<path d="M0 0 C1 2 1 2 0.4375 4.1875 C-1.49483953 7.9681643 -4.144387 10.88396946 -7 14 C-7.33 13.34 -7.66 12.68 -8 12 C-7.05208333 10.578125 -6.10416667 9.15625 -5.15625 7.734375 C-4.7746875 7.16203125 -4.393125 6.5896875 -4 6 C-2 3 -2 3 0 0 Z " fill="#0F60E9" transform="translate(441,331)"/>
<path d="M0 0 C0.33 0 0.66 0 1 0 C1 1.65 1 3.3 1 5 C1.66 5 2.32 5 3 5 C3 6.65 3 8.3 3 10 C3.66 10 4.32 10 5 10 C5.33 12.31 5.66 14.62 6 17 C3.6776572 14.1237651 2.13434158 11.36219578 0.75 7.9375 C0.39421875 7.08027344 0.0384375 6.22304688 -0.328125 5.33984375 C-1 3 -1 3 0 0 Z " fill="#082A8A" transform="translate(198,402)"/>
<path d="M0 0 C0 3.99813433 -1.86594251 6.41904263 -3.9375 9.6875 C-4.31068359 10.29400391 -4.68386719 10.90050781 -5.06835938 11.52539062 C-6.01266267 13.03797735 -7.00262897 14.52186661 -8 16 C-8.33 16 -8.66 16 -9 16 C-9.3125 13.3125 -9.3125 13.3125 -9 10 C-6.75 7.4375 -6.75 7.4375 -4 5 C-2.64444707 3.35135455 -1.30368347 1.68996005 0 0 Z " fill="#0137B6" transform="translate(492,250)"/>
<path d="M0 0 C0.82638376 2.89234315 1 4.88742431 1 8 C-0.375 9.75 -0.375 9.75 -2 11 C-2.66 11 -3.32 11 -4 11 C-3.52269162 9.5410574 -3.04308958 8.08286504 -2.5625 6.625 C-2.29566406 5.81289063 -2.02882813 5.00078125 -1.75390625 4.1640625 C-1 2 -1 2 0 0 Z " fill="#06328F" transform="translate(405,369)"/>
<path d="M0 0 C3.3 0.33 6.6 0.66 10 1 C10.33 2.65 10.66 4.3 11 6 C10.34 5.67 9.68 5.34 9 5 C9 4.34 9 3.68 9 3 C4.545 3.495 4.545 3.495 0 4 C0 2.68 0 1.36 0 0 Z " fill="#08379C" transform="translate(502,227)"/>
<path d="M0 0 C-2.23407889 3.35111834 -3.26215824 4.81553956 -7.25 5.8125 C-8.61125 5.9053125 -8.61125 5.9053125 -10 6 C-10 5.34 -10 4.68 -10 4 C-6.68165449 0.77646436 -4.65842688 -0.53239164 0 0 Z " fill="#055ED9" transform="translate(456,460)"/>
<path d="M0 0 C0 3.93154432 -1.25327015 6.5065403 -3 10 C-3.99 10.33 -4.98 10.66 -6 11 C-5.55530671 5.96014269 -3.28656638 3.62365012 0 0 Z M-8 11 C-7.34 11.33 -6.68 11.66 -6 12 C-6.33 12.66 -6.66 13.32 -7 14 C-7.66 13.67 -8.32 13.34 -9 13 C-8.67 12.34 -8.34 11.68 -8 11 Z " fill="#086AE8" transform="translate(475,279)"/>
<path d="M0 0 C0.6875 1.75 0.6875 1.75 1 4 C-0.4375 6.25 -0.4375 6.25 -2 8 C-3.32 7.67 -4.64 7.34 -6 7 C-6 6.34 -6 5.68 -6 5 C-5.01 4.34 -4.02 3.68 -3 3 C-1.98131338 2.01904252 -0.97648017 1.02297922 0 0 Z " fill="#0BC1EE" transform="translate(698,115)"/>
<path d="M0 0 C1.79158489 -0.02696365 3.58328473 -0.04637917 5.375 -0.0625 C6.37273438 -0.07410156 7.37046875 -0.08570313 8.3984375 -0.09765625 C11 0 11 0 13 1 C12.625 3.4375 12.625 3.4375 12 6 C11.01 6.495 11.01 6.495 10 7 C9.67 5.35 9.34 3.7 9 2 C6.03 1.67 3.06 1.34 0 1 C0 0.67 0 0.34 0 0 Z " fill="#2DACBD" transform="translate(723,64)"/>
<path d="M0 0 C-0.33 1.32 -0.66 2.64 -1 4 C-4.28696233 4.79953138 -5.71023192 5.09658936 -9 4 C-9 3.34 -9 2.68 -9 2 C-2.25 0 -2.25 0 0 0 Z " fill="#0750C9" transform="translate(370,408)"/>
<path d="M0 0 C0.66 0.33 1.32 0.66 2 1 C-0.16264012 4.98381075 -2.71211176 7.88983545 -6 11 C-4.74194623 6.49197399 -3.09592835 3.5087188 0 0 Z " fill="#126FEC" transform="translate(484,265)"/>
<path d="M0 0 C0.66 0.33 1.32 0.66 2 1 C1.01 1.66 0.02 2.32 -1 3 C-0.67 2.01 -0.34 1.02 0 0 Z M-6 3 C-3.3125 2.6875 -3.3125 2.6875 -1 3 C-1.99 3.33 -2.98 3.66 -4 4 C-4 4.66 -4 5.32 -4 6 C-4.66 6 -5.32 6 -6 6 C-6.66 7.32 -7.32 8.64 -8 10 C-8.33 9.34 -8.66 8.68 -9 8 C-7.875 5.375 -7.875 5.375 -6 3 Z " fill="#011152" transform="translate(430,152)"/>
<path d="M0 0 C0 3 0 3 0 3 Z M-2 3 C-1.67 3.99 -1.34 4.98 -1 6 C-1.99 6.33 -2.98 6.66 -4 7 C-5.66710346 8.49985609 -5.66710346 8.49985609 -7 10 C-7.33 8.68 -7.66 7.36 -8 6 C-6.02 5.01 -4.04 4.02 -2 3 Z " fill="#0FB4F5" transform="translate(684,130)"/>
<path d="M0 0 C3.63 0 7.26 0 11 0 C7.71536341 2.18975773 4.79303725 2.99806563 1 4 C0.67 2.68 0.34 1.36 0 0 Z " fill="#0A49CA" transform="translate(388,495)"/>
<path d="M0 0 C1.32 0.33 2.64 0.66 4 1 C1.525 5.455 1.525 5.455 -1 10 C-1.33 10 -1.66 10 -2 10 C-2 8.35 -2 6.7 -2 5 C-1.34 5 -0.68 5 0 5 C0 3.35 0 1.7 0 0 Z " fill="#0F62D4" transform="translate(477,427)"/>
<path d="M0 0 C0.33 0 0.66 0 1 0 C0.56179109 4.55737263 0.14958831 7.57653445 -3 11 C-2.88590407 9.54077307 -2.75834456 8.08259402 -2.625 6.625 C-2.55539062 5.81289063 -2.48578125 5.00078125 -2.4140625 4.1640625 C-2 2 -2 2 0 0 Z " fill="#0C5AE1" transform="translate(484,416)"/>
<path d="M0 0 C3.3 0 6.6 0 10 0 C7.08596738 1.94268841 4.14191424 3.46395304 1 5 C0.67 3.35 0.34 1.7 0 0 Z " fill="#1156B7" transform="translate(512,228)"/>
<path d="M0 0 C1.21236328 0.01353516 1.21236328 0.01353516 2.44921875 0.02734375 C3.37154297 0.04474609 3.37154297 0.04474609 4.3125 0.0625 C3.9825 0.7225 3.6525 1.3825 3.3125 2.0625 C1.31640625 2.546875 1.31640625 2.546875 -1.125 2.8125 C-2.32962891 2.95945313 -2.32962891 2.95945313 -3.55859375 3.109375 C-5.6875 3.0625 -5.6875 3.0625 -7.6875 1.0625 C-4.80538698 0.10179566 -2.98899956 -0.04331883 0 0 Z " fill="#001154" transform="translate(449.6875,144.9375)"/>
<path d="M0 0 C0.33 0.99 0.66 1.98 1 3 C0.01 3.99 -0.98 4.98 -2 6 C-2.99 5.67 -3.98 5.34 -5 5 C-5 5.66 -5 6.32 -5 7 C-6.32 6.67 -7.64 6.34 -9 6 C-6.03 4.02 -3.06 2.04 0 0 Z " fill="#0C6CBC" transform="translate(460,78)"/>
<path d="M0 0 C1.23556641 0.01740234 1.23556641 0.01740234 2.49609375 0.03515625 C3.32238281 0.04417969 4.14867187 0.05320313 5 0.0625 C5.63808594 0.07410156 6.27617187 0.08570313 6.93359375 0.09765625 C6.93359375 0.42765625 6.93359375 0.75765625 6.93359375 1.09765625 C5.86109375 1.36578125 4.78859375 1.63390625 3.68359375 1.91015625 C0.36850447 2.95993452 -1.50518271 3.84377953 -4.06640625 6.09765625 C-2.99738005 0.14165312 -2.99738005 0.14165312 0 0 Z " fill="#0F6BF6" transform="translate(193.06640625,34.90234375)"/>
<path d="M0 0 C0.33 0.99 0.66 1.98 1 3 C2.32 3 3.64 3 5 3 C5 4.32 5 5.64 5 7 C3.35 7 1.7 7 0 7 C-1.125 2.25 -1.125 2.25 0 0 Z " fill="#0B49DE" transform="translate(219,437)"/>
<path d="M0 0 C0 1.65 0 3.3 0 5 C-1.98 5.66 -3.96 6.32 -6 7 C-5.1875 4.0625 -5.1875 4.0625 -4 1 C-1 0 -1 0 0 0 Z " fill="#0C97E4" transform="translate(647,267)"/>
<path d="M0 0 C0.66 0 1.32 0 2 0 C2 1.65 2 3.3 2 5 C-1.465 6.485 -1.465 6.485 -5 8 C-4.6875 6.125 -4.6875 6.125 -4 4 C-3.01 3.34 -2.02 2.68 -1 2 C-0.67 1.34 -0.34 0.68 0 0 Z " fill="#0AC1EF" transform="translate(713,92)"/>
<path d="M0 0 C0.99 0.33 1.98 0.66 3 1 C0.525 4.465 0.525 4.465 -2 8 C-2.66 6.68 -3.32 5.36 -4 4 C-2.68 3.67 -1.36 3.34 0 3 C0 2.01 0 1.02 0 0 Z " fill="#0960D3" transform="translate(472,437)"/>
<path d="M0 0 C0.66 0 1.32 0 2 0 C4.1875 2.8125 4.1875 2.8125 6 6 C5.67 6.99 5.34 7.98 5 9 C1.9083091 6.47043472 1.09068668 3.77545388 0 0 Z " fill="#0532A3" transform="translate(204,419)"/>
<path d="M0 0 C1.125 1.75 1.125 1.75 2 4 C1.125 6.25 1.125 6.25 0 8 C-0.66 8 -1.32 8 -2 8 C-2.33 7.01 -2.66 6.02 -3 5 C-1.5625 2.3125 -1.5625 2.3125 0 0 Z " fill="#0937A1" transform="translate(400,380)"/>
<path d="M0 0 C0.33 0 0.66 0 1 0 C1.66 4.62 2.32 9.24 3 14 C2.34 14 1.68 14 1 14 C-0.38226016 11.23547967 -0.09525387 8.9538637 -0.0625 5.875 C-0.05347656 4.77929688 -0.04445312 3.68359375 -0.03515625 2.5546875 C-0.02355469 1.71164062 -0.01195312 0.86859375 0 0 Z " fill="#0451E1" transform="translate(192,369)"/>
<path d="M0 0 C1.32 0.66 2.64 1.32 4 2 C3.01 3.485 3.01 3.485 2 5 C0.68 5 -0.64 5 -2 5 C-1.125 1.125 -1.125 1.125 0 0 Z " fill="#0150E5" transform="translate(372,496)"/>
<path d="M0 0 C0.33 0.66 0.66 1.32 1 2 C0.06553465 4.03144641 -0.93224776 6.03533587 -2 8 C-3.32 7.67 -4.64 7.34 -6 7 C-4.02 4.69 -2.04 2.38 0 0 Z " fill="#0C379E" transform="translate(396,387)"/>
<path d="M0 0 C0 3.96 0 7.92 0 12 C-2.21871601 8.67192599 -2 7.79509218 -2 4 C-2.66 3.01 -3.32 2.02 -4 1 C-1 0 -1 0 0 0 Z " fill="#0A73EF" transform="translate(499,307)"/>
<path d="M0 0 C0.99 0 1.98 0 3 0 C3 2.64 3 5.28 3 8 C2.67 7.34 2.34 6.68 2 6 C1.34 6 0.68 6 0 6 C0 4.02 0 2.04 0 0 Z " fill="#106ED4" transform="translate(187,101)"/>
<path d="M0 0 C-4.455 1.485 -4.455 1.485 -9 3 C-9 2.01 -9 1.02 -9 0 C-4.5 -2.25 -4.5 -2.25 0 0 Z " fill="#104CC5" transform="translate(409,492)"/>
<path d="M0 0 C6.75 0.875 6.75 0.875 9 2 C8.67 2.99 8.34 3.98 8 5 C5.36 3.68 2.72 2.36 0 1 C0 0.67 0 0.34 0 0 Z " fill="#0936AF" transform="translate(258,479)"/>
<path d="M0 0 C0.66 0.33 1.32 0.66 2 1 C0.08864614 4.53600465 -1.62642766 6.78972846 -5 9 C-3.7508258 5.54074837 -2.32472205 2.85306797 0 0 Z " fill="#1065EC" transform="translate(452,314)"/>
<path d="M0 0 C0.99 0.33 1.98 0.66 3 1 C0.69 2.65 -1.62 4.3 -4 6 C-4.33 5.34 -4.66 4.68 -5 4 C-4.67 3.01 -4.34 2.02 -4 1 C-2.02 1.495 -2.02 1.495 0 2 C0 1.34 0 0.68 0 0 Z " fill="#198CD6" transform="translate(628,293)"/>
<path d="M0 0 C0.66 0.66 1.32 1.32 2 2 C1.7578125 4.1640625 1.7578125 4.1640625 1.125 6.625 C0.92132813 7.44226563 0.71765625 8.25953125 0.5078125 9.1015625 C0.34023438 9.72804687 0.17265625 10.35453125 0 11 C-0.9354491 7.57744416 -1.15817644 4.55896985 -1 1 C-0.67 0.67 -0.34 0.34 0 0 Z " fill="#0673ED" transform="translate(414,151)"/>
<path d="M0 0 C0.99 0 1.98 0 3 0 C3 1.98 3 3.96 3 6 C2.01 6 1.02 6 0 6 C0 4.02 0 2.04 0 0 Z " fill="#0C3289" transform="translate(498,147)"/>
<path d="M0 0 C1.46726798 3.81489674 0.43336419 6.29011622 -1 10 C-1.66 10 -2.32 10 -3 10 C-2.39009109 6.44219804 -1.4216319 3.3171411 0 0 Z " fill="#0A3D8C" transform="translate(420,121)"/>
<path d="M0 0 C0.33 0.66 0.66 1.32 1 2 C0.0625 4.125 0.0625 4.125 -1 6 C-1.99 6 -2.98 6 -4 6 C-4 6.66 -4 7.32 -4 8 C-4.66 7.67 -5.32 7.34 -6 7 C-4.02 4.69 -2.04 2.38 0 0 Z " fill="#0A56A4" transform="translate(437,97)"/>
<path d="M0 0 C2 2 2 2 2.125 5.125 C2.08375 6.07375 2.0425 7.0225 2 8 C1.01 8.33 0.02 8.66 -1 9 C-0.67 6.03 -0.34 3.06 0 0 Z " fill="#0950DC" transform="translate(291,374)"/>
</svg>
